<svg width="739" height="365" viewBox="0 0 739 365" fill="none" xmlns="http://www.w3.org/2000/svg">
<path d="M239.015 300.389C236.165 322.719 225.685 343.149 214.505 362.829C214.135 363.499 213.755 364.159 213.365 364.829H97.1648C94.8147 364.219 92.4949 363.549 90.1848 362.829C77.0604 358.833 64.6699 352.738 53.4949 344.779C10.7449 313.979 -5.70531 255.779 1.72488 203.629C6.345 171.229 20.5647 138.149 48.2547 120.699C62.8748 111.469 81.6546 108.469 98.4847 111.899C98.9251 111.979 99.365 112.079 99.8148 112.169C114.295 115.429 127.195 123.529 134.535 136.579C147.735 160.029 139.875 189.079 133.385 215.179C126.915 241.279 123.405 272.519 142.185 291.769C135.985 273.519 142.105 251.749 156.915 239.409C168.105 230.099 183.685 226.609 197.895 229.499C199.255 229.789 200.595 230.119 201.915 230.519C205.105 231.453 208.181 232.741 211.085 234.359C233.235 246.729 242.205 275.219 239.015 300.389Z" fill="#F2F2F2"/>
<path d="M170.115 362.829C173.335 363.579 176.565 364.239 179.815 364.829H162.245C159.945 364.209 157.655 363.549 155.385 362.829C150.395 361.269 145.481 359.479 140.645 357.459C121.245 349.319 103.375 337.099 89.8548 320.839C83.2426 312.961 77.8431 304.141 73.8348 294.669C69.4883 283.964 66.726 272.682 65.6351 261.179C63.1849 237.579 65.6849 213.329 70.3548 190.149C75.1741 166.124 82.9535 142.789 93.515 120.679C94.785 118.029 96.0983 115.396 97.4549 112.779C97.5482 112.564 97.6895 112.372 97.868 112.22C98.0464 112.067 98.2574 111.958 98.4847 111.899C98.9463 111.809 99.4246 111.907 99.8148 112.169C100.283 112.438 100.63 112.876 100.785 113.393C100.939 113.911 100.889 114.467 100.645 114.949C89.7554 136.185 81.5009 158.671 76.0648 181.909C70.7449 204.579 67.7249 228.299 68.7547 251.609C69.7347 273.389 75.4251 294.809 88.3348 312.619C100.125 328.879 116.405 341.699 134.415 350.429C145.814 355.883 157.789 360.042 170.115 362.829Z" fill="white"/>
<path d="M208.675 364.829H203.495C202.915 364.169 202.355 363.499 201.805 362.829C190.006 348.493 182.013 331.413 178.565 313.169C174.377 290.401 177.635 266.89 187.855 246.119C190.706 240.295 194.066 234.733 197.895 229.499C199.255 229.789 200.595 230.119 201.915 230.519C191.843 243.863 185.069 259.399 182.145 275.859C179.536 291.283 180.403 307.095 184.683 322.141C188.964 337.187 196.549 351.088 206.885 362.829C207.465 363.499 208.065 364.169 208.675 364.829Z" fill="white"/>
<path d="M675.314 347.822C676.067 353.716 678.832 359.107 681.783 364.301C681.881 364.478 681.981 364.652 682.084 364.829H712.751C713.371 364.668 713.984 364.491 714.593 364.301C718.057 363.247 721.327 361.638 724.276 359.538C735.559 351.409 739.901 336.049 737.94 322.285C736.72 313.735 732.967 305.004 725.659 300.399C721.691 297.982 716.956 297.152 712.403 298.076C712.287 298.097 712.171 298.124 712.052 298.147C710.156 298.514 708.36 299.277 706.781 300.388C705.201 301.498 703.875 302.93 702.889 304.59C699.405 310.779 701.479 318.445 703.192 325.334C704.9 332.222 705.826 340.467 700.87 345.547C701.596 343.423 701.744 341.143 701.297 338.942C700.85 336.742 699.826 334.7 698.329 333.026C696.832 331.353 694.916 330.108 692.778 329.421C690.641 328.733 688.359 328.627 686.167 329.113C685.808 329.19 685.454 329.277 685.106 329.382C684.264 329.629 683.452 329.969 682.686 330.396C676.84 333.66 674.472 341.179 675.314 347.822Z" fill="#F2F2F2"/>
<path d="M693.498 364.301C692.649 364.499 691.796 364.673 690.938 364.829H695.575C696.182 364.665 696.787 364.491 697.386 364.301C698.703 363.89 700 363.417 701.276 362.884C706.453 360.782 711.05 357.467 714.68 353.219C716.426 351.14 717.851 348.812 718.909 346.313C720.056 343.487 720.785 340.51 721.073 337.474C721.599 331.198 721.179 324.879 719.827 318.728C718.555 312.387 716.502 306.229 713.714 300.393C713.379 299.694 713.033 298.999 712.675 298.308C712.65 298.252 712.613 298.201 712.566 298.161C712.519 298.121 712.463 298.092 712.403 298.076C712.281 298.053 712.155 298.078 712.052 298.147C711.928 298.218 711.837 298.334 711.796 298.471C711.755 298.607 711.768 298.754 711.833 298.881C714.707 304.486 716.885 310.42 718.32 316.553C719.798 322.568 720.447 328.757 720.249 334.948C720.144 340.706 718.347 346.306 715.082 351.05C711.907 355.322 707.73 358.749 702.92 361.029C699.912 362.468 696.751 363.566 693.498 364.301Z" fill="white"/>
<path d="M683.322 364.829H684.689C684.842 364.655 684.99 364.478 685.135 364.301C688.249 360.518 690.358 356.01 691.268 351.195C692.373 345.186 691.514 338.981 688.816 333.499C688.064 331.962 687.177 330.494 686.167 329.113C685.808 329.19 685.454 329.277 685.106 329.382C687.764 332.904 689.552 337.004 690.323 341.348C691.012 345.419 690.783 349.592 689.653 353.563C688.524 357.534 686.522 361.202 683.794 364.301C683.641 364.478 683.483 364.655 683.322 364.829Z" fill="white"/>
<path d="M398.895 212.508H302.914L301.896 182.998C301.852 181.718 302.086 180.445 302.581 179.264C303.077 178.084 303.822 177.025 304.766 176.16C305.709 175.296 306.829 174.646 308.048 174.255C309.267 173.865 310.557 173.743 311.827 173.899L367.682 180.738H367.688C375.969 180.761 383.903 184.064 389.752 189.926C395.602 195.787 398.889 203.728 398.895 212.008V212.508Z" fill="#E15262"/>
<path d="M356.116 107.829H289.174C288.283 107.829 287.402 108.004 286.579 108.345C285.757 108.685 285.009 109.185 284.38 109.814C283.75 110.444 283.251 111.191 282.91 112.014C282.57 112.836 282.395 113.718 282.395 114.608V181.55C282.395 182.44 282.57 183.322 282.91 184.145C283.251 184.967 283.75 185.715 284.38 186.344C285.009 186.974 285.757 187.473 286.579 187.814C287.402 188.154 288.283 188.329 289.174 188.329H356.116C357.006 188.329 357.888 188.154 358.71 187.814C359.533 187.473 360.28 186.974 360.91 186.344C361.539 185.715 362.039 184.967 362.379 184.145C362.72 183.322 362.895 182.44 362.895 181.55V114.608C362.895 113.718 362.72 112.836 362.379 112.014C362.039 111.191 361.539 110.444 360.91 109.814C360.28 109.185 359.533 108.685 358.71 108.345C357.888 108.004 357.006 107.829 356.116 107.829Z" fill="#CCCCCC"/>
<path d="M341.04 157.886L309.433 164.041C307.558 164.404 305.616 164.008 304.033 162.941C302.449 161.873 301.354 160.222 300.987 158.348L298.557 145.871C298.194 143.997 298.59 142.054 299.657 140.471C300.724 138.887 302.376 137.792 304.25 137.425L335.856 131.27C337.731 130.907 339.673 131.303 341.257 132.37C342.84 133.437 343.936 135.089 344.303 136.963L346.733 149.439C347.095 151.314 346.7 153.256 345.633 154.84C344.565 156.423 342.913 157.519 341.04 157.886Z" fill="#3F3D56"/>
<path d="M334.716 143.146L310.595 147.844C310.154 147.929 309.697 147.837 309.324 147.585C308.952 147.334 308.694 146.945 308.608 146.504C308.522 146.063 308.615 145.606 308.866 145.233C309.117 144.86 309.506 144.602 309.948 144.517L334.068 139.819C334.509 139.733 334.967 139.826 335.339 140.078C335.712 140.329 335.97 140.718 336.056 141.159C336.141 141.6 336.049 142.057 335.797 142.43C335.546 142.803 335.157 143.06 334.716 143.146Z" fill="white"/>
<path d="M330.028 150.102L317.551 152.532C317.11 152.618 316.653 152.525 316.28 152.274C315.908 152.023 315.65 151.634 315.564 151.192C315.478 150.751 315.571 150.294 315.822 149.921C316.073 149.549 316.462 149.291 316.904 149.205L329.38 146.775C329.598 146.733 329.823 146.734 330.041 146.778C330.259 146.822 330.466 146.909 330.651 147.034C330.835 147.158 330.994 147.317 331.117 147.503C331.239 147.689 331.325 147.896 331.367 148.115C331.41 148.333 331.409 148.558 331.365 148.776C331.32 148.994 331.233 149.202 331.109 149.386C330.985 149.571 330.825 149.729 330.64 149.852C330.454 149.975 330.246 150.06 330.028 150.102Z" fill="white"/>
<path d="M362.895 114.608V123.505H282.395V114.608C282.395 113.718 282.57 112.836 282.91 112.014C283.251 111.191 283.75 110.444 284.38 109.814C285.009 109.185 285.757 108.685 286.579 108.345C287.402 108.004 288.283 107.829 289.174 107.829H356.116C357.006 107.829 357.888 108.004 358.71 108.345C359.533 108.685 360.28 109.185 360.91 109.814C361.539 110.444 362.039 111.191 362.379 112.014C362.72 112.836 362.895 113.718 362.895 114.608Z" fill="#B3B3B3"/>
<path d="M523.646 126.292C523.181 124.791 522.393 123.411 521.337 122.249C520.281 121.086 518.983 120.169 517.535 119.562C516.086 118.955 514.522 118.673 512.953 118.736C511.384 118.799 509.847 119.206 508.452 119.927L416.356 86.884L412.299 109.891L504.103 135.137C505.469 137.4 507.619 139.084 510.144 139.869C512.669 140.653 515.394 140.485 517.803 139.394C520.212 138.304 522.137 136.368 523.214 133.953C524.291 131.538 524.444 128.812 523.646 126.292Z" fill="#FFB8B8"/>
<path opacity="0.2" d="M523.646 126.292C523.181 124.791 522.393 123.411 521.337 122.249C520.281 121.086 518.983 120.169 517.535 119.562C516.086 118.955 514.522 118.673 512.953 118.736C511.384 118.799 509.847 119.206 508.452 119.927L416.356 86.884L412.299 109.891L504.103 135.137C505.469 137.4 507.619 139.084 510.144 139.869C512.669 140.653 515.394 140.485 517.803 139.394C520.212 138.304 522.137 136.368 523.214 133.953C524.291 131.538 524.444 128.812 523.646 126.292Z" fill="black"/>
<path d="M432.702 91.0764L424.006 113.797C423.758 114.443 423.374 115.029 422.88 115.513C422.386 115.998 421.793 116.371 421.142 116.606C420.491 116.84 419.797 116.932 419.107 116.875C418.417 116.817 417.748 116.612 417.145 116.272L396.008 104.376C392.709 103.091 390.053 100.55 388.623 97.3101C387.194 94.07 387.108 90.3954 388.383 87.0918C389.659 83.7882 392.192 81.1253 395.428 79.6867C398.664 78.2481 402.339 78.1514 405.646 79.4176L429.248 84.6523C429.924 84.8024 430.559 85.0963 431.111 85.5141C431.663 85.9319 432.118 86.4638 432.446 87.0734C432.774 87.6831 432.967 88.3562 433.011 89.047C433.055 89.7378 432.95 90.4299 432.702 91.0764Z" fill="#E15262"/>
<path d="M530.895 147.329L497.895 162.329L502.227 178.64C510.594 210.138 512.814 242.952 508.767 275.29L532.895 280.329L552.895 229.329L545.895 171.329L530.895 147.329Z" fill="#E15262"/>
<path d="M595.645 222.829C573.963 222.829 556.293 238.591 555.436 258.329H635.854C634.996 238.591 617.327 222.829 595.645 222.829Z" fill="#3F3D56"/>
<path d="M578.766 226.231C577.638 137.132 526.895 145.329 526.895 145.329C526.895 145.329 527.844 173.062 528.3 173.925C560.635 235.104 507.27 306.829 439.34 293.634C438.059 293.385 436.829 293.133 435.649 292.877C427.041 291.08 419.442 286.071 414.396 278.871C409.35 271.67 407.237 262.817 408.485 254.114C415.177 200.378 381.895 201.329 381.895 201.329H333.228L307.955 178.583C307.063 177.78 305.988 177.208 304.823 176.917C303.659 176.626 302.441 176.624 301.276 176.912C300.111 177.2 299.034 177.77 298.14 178.57C297.246 179.371 296.561 180.378 296.146 181.504L292.895 190.329C292.895 190.329 244.895 195.329 248.895 242.329H263.735C263.699 243.665 263.752 245.001 263.895 246.329L374.646 245.429C381.138 245.376 386.868 250.636 386.895 257.128C386.901 258.709 386.589 260.275 385.977 261.732C385.364 263.189 384.464 264.507 383.331 265.609C382.197 266.71 380.853 267.571 379.378 268.141C377.904 268.71 376.33 268.977 374.75 268.924L356.895 268.329C351.395 292.829 364.895 309.329 379.77 319.704C393.775 329.331 410.393 334.435 427.387 334.329H475.895C538.895 334.329 549.895 281.329 549.895 281.329C582.895 267.329 578.766 226.231 578.766 226.231Z" fill="#3F3D56"/>
<path d="M592.645 363.329C623.711 363.329 648.895 338.145 648.895 307.079C648.895 276.013 623.711 250.829 592.645 250.829C561.579 250.829 536.395 276.013 536.395 307.079C536.395 338.145 561.579 363.329 592.645 363.329Z" fill="#3F3D56"/>
<path d="M592.645 320.866C600.259 320.866 606.432 314.693 606.432 307.079C606.432 299.465 600.259 293.292 592.645 293.292C585.031 293.292 578.858 299.465 578.858 307.079C578.858 314.693 585.031 320.866 592.645 320.866Z" fill="white"/>
<path d="M308.645 363.329C344.405 363.329 373.395 334.34 373.395 298.579C373.395 262.819 344.405 233.829 308.645 233.829C272.884 233.829 243.895 262.819 243.895 298.579C243.895 334.34 272.884 363.329 308.645 363.329Z" fill="#3F3D56"/>
<path d="M308.645 314.449C317.41 314.449 324.515 307.344 324.515 298.579C324.515 289.814 317.41 282.709 308.645 282.709C299.88 282.709 292.775 289.814 292.775 298.579C292.775 307.344 299.88 314.449 308.645 314.449Z" fill="white"/>
<path d="M497.989 166.761L486.115 134.512C485.496 132.831 485.215 131.045 485.286 129.255C485.358 127.465 485.781 125.707 486.532 124.081C487.283 122.455 488.347 120.993 489.663 119.778C490.979 118.563 492.521 117.62 494.202 117.001L528.242 104.47C531.199 103.381 534.342 102.885 537.491 103.01C540.64 103.136 543.733 103.881 546.594 105.202C549.456 106.523 552.029 108.394 554.166 110.71C556.304 113.025 557.965 115.739 559.054 118.697C560.036 121.351 560.537 124.159 560.535 126.989C560.522 130.583 559.709 134.128 558.154 137.368C556.6 140.608 554.342 143.461 551.547 145.719C549.528 147.339 547.258 148.619 544.827 149.508L497.989 166.761Z" fill="#3F3D56"/>
<path d="M560.035 126.989C560.032 130.509 559.24 133.984 557.717 137.158C556.194 140.332 553.979 143.124 551.235 145.329C547.024 144.218 543.106 142.204 539.753 139.426C536.399 136.648 533.691 133.173 531.816 129.243C529.941 125.313 528.945 121.021 528.897 116.667C528.848 112.313 529.748 108 531.535 104.029C534.965 103.283 538.518 103.315 541.934 104.122C545.35 104.929 548.542 106.491 551.276 108.693C554.009 110.895 556.215 113.682 557.731 116.848C559.246 120.014 560.034 123.479 560.035 126.989Z" fill="#E15262"/>
<path d="M257.395 248.829C265.127 248.829 271.395 241.218 271.395 231.829C271.395 222.44 265.127 214.829 257.395 214.829C249.663 214.829 243.395 222.44 243.395 231.829C243.395 241.218 249.663 248.829 257.395 248.829Z" fill="#E15262"/>
<path d="M442.456 292.005H454.716L460.549 260.208L442.454 260.209L442.456 292.005Z" fill="#FFB8B8"/>
<path d="M439.329 288.003L463.472 288.001H463.473C465.494 288.001 467.495 288.399 469.362 289.173C471.228 289.946 472.925 291.079 474.353 292.508C475.782 293.937 476.915 295.633 477.689 297.5C478.462 299.366 478.86 301.367 478.86 303.388V303.888L439.329 303.889L439.329 288.003Z" fill="#2F2E41"/>
<path d="M456.686 278.955C456.544 278.955 456.4 278.948 456.256 278.934L439.29 277.699C438.603 277.635 437.941 277.415 437.354 277.055C436.766 276.694 436.269 276.204 435.901 275.622C435.533 275.039 435.304 274.38 435.231 273.695C435.158 273.009 435.243 272.316 435.48 271.669L458.187 220.655C458.349 220.2 458.415 219.717 458.382 219.235C458.348 218.753 458.215 218.284 457.991 217.856C457.767 217.423 457.454 217.043 457.073 216.739C456.692 216.436 456.251 216.217 455.779 216.096C445.102 213.305 417.707 205.874 393.993 197.178C383.833 193.453 377.434 188.069 374.974 181.176C371.731 172.089 376.529 163.802 376.735 163.455L376.896 163.182L399.21 165.21L423.402 167.268L476.415 195.696C480.857 198.098 484.231 202.085 485.866 206.864C487.5 211.642 487.274 216.861 485.233 221.48L460.793 276.288C460.439 277.081 459.863 277.756 459.134 278.229C458.406 278.702 457.555 278.954 456.686 278.955Z" fill="#2F2E41"/>
<path d="M403.09 64.2812C416.655 64.2812 427.651 53.2849 427.651 39.7202C427.651 26.1555 416.655 15.1592 403.09 15.1592C389.526 15.1592 378.529 26.1555 378.529 39.7202C378.529 53.2849 389.526 64.2812 403.09 64.2812Z" fill="#FFB8B8"/>
<path d="M435.456 295.005H447.716L453.549 263.208L435.454 263.209L435.456 295.005Z" fill="#FFB8B8"/>
<path d="M432.329 291.003L456.472 291.001H456.473C458.494 291.001 460.495 291.399 462.362 292.173C464.228 292.946 465.925 294.079 467.353 295.508C468.782 296.937 469.915 298.633 470.689 300.5C471.462 302.366 471.86 304.367 471.86 306.388V306.888L432.329 306.889L432.329 291.003Z" fill="#2F2E41"/>
<path d="M449.686 281.955C449.544 281.955 449.4 281.948 449.256 281.934L432.29 280.699C431.603 280.635 430.941 280.415 430.354 280.055C429.766 279.694 429.269 279.204 428.901 278.622C428.533 278.039 428.304 277.38 428.231 276.695C428.158 276.009 428.243 275.316 428.48 274.669L451.187 223.655C451.349 223.2 451.415 222.717 451.382 222.235C451.348 221.753 451.215 221.284 450.991 220.856C450.767 220.423 450.454 220.043 450.073 219.739C449.692 219.436 449.251 219.217 448.779 219.096C438.102 216.305 410.707 208.874 386.993 200.178C376.833 196.453 370.434 191.069 367.974 184.176C364.731 175.089 369.529 166.802 369.735 166.455L369.896 166.182L392.21 168.21L416.402 170.268L469.415 198.696C473.857 201.098 477.231 205.085 478.866 209.864C480.5 214.642 480.274 219.861 478.233 224.48L453.793 279.288C453.439 280.081 452.863 280.756 452.134 281.229C451.406 281.702 450.555 281.954 449.686 281.955Z" fill="#2F2E41"/>
<path d="M410.665 78.2085L384.665 69.2085C384.665 69.2085 368.343 81.7485 376.184 112.857C380.278 128.91 379.085 145.856 372.784 161.177C372.025 163.073 371.151 164.92 370.165 166.708C370.165 166.708 399.165 201.708 426.165 175.708L415.665 125.208C415.665 125.208 432.165 91.7085 410.665 78.2085Z" fill="#E15262"/>
<path d="M406.14 65.1165C402.644 59.8842 399.885 52.629 403.734 47.6506C407.533 42.7365 415.026 43.4605 420.845 41.286C428.949 38.2573 433.649 28.7367 432.183 20.2103C430.717 11.684 423.873 4.61591 415.719 1.72388C407.565 -1.16815 398.37 -0.227596 390.386 3.10275C380.556 7.20245 372.125 15.133 368.589 25.179C365.053 35.225 366.943 47.2871 374.278 55.0086C382.142 63.287 394.484 65.4932 405.901 65.3593" fill="#2F2E41"/>
<path d="M383.293 20.4841C378.888 24.0699 372.168 22.4772 367.439 19.3302C362.711 16.1831 358.874 11.7019 353.758 9.23452C344.739 4.88457 333.835 7.77628 325.057 12.5946C316.279 17.413 308.497 24.0696 299.225 27.8508C289.953 31.632 278.121 31.8188 271.1 24.6792C269.373 29.685 269.231 35.102 270.696 40.1911C272.161 45.2801 275.16 49.7934 279.284 53.1151C283.408 56.4368 288.457 58.4051 293.741 58.7515C299.025 59.0979 304.288 57.8055 308.811 55.0506C318.97 48.8622 324.582 35.8869 335.977 32.4713C342.282 30.5812 349.053 32.1035 355.426 33.7523C361.799 35.4012 368.443 37.1828 374.875 35.7791C381.306 34.3754 387.322 28.596 386.504 22.0644L383.293 20.4841Z" fill="#2F2E41"/>
<path d="M522.423 125.291C521.777 123.86 520.825 122.587 519.634 121.564C518.442 120.54 517.041 119.79 515.529 119.367C514.017 118.944 512.43 118.857 510.88 119.113C509.331 119.369 507.856 119.962 506.561 120.85L411.091 99.4224L409.904 122.754L504.121 136.48C505.757 138.558 508.097 139.963 510.7 140.43C513.303 140.898 515.986 140.394 518.242 139.015C520.498 137.636 522.17 135.477 522.94 132.947C523.711 130.418 523.527 127.694 522.423 125.291Z" fill="#FFB8B8"/>
<path d="M427.83 101.566L422.003 125.186C421.837 125.858 421.529 126.486 421.098 127.028C420.668 127.57 420.125 128.013 419.508 128.326C418.891 128.64 418.213 128.817 417.522 128.845C416.83 128.873 416.141 128.751 415.5 128.489L393.058 119.291C389.622 118.425 386.67 116.232 384.85 113.192C383.03 110.153 382.49 106.515 383.349 103.078C384.207 99.6402 386.395 96.6839 389.431 94.8573C392.466 93.0307 396.103 92.483 399.542 93.3344L423.61 95.617C424.299 95.6825 424.966 95.8958 425.565 96.2424C426.164 96.5889 426.682 97.0605 427.082 97.625C427.483 98.1896 427.757 98.8338 427.886 99.5139C428.015 100.194 427.996 100.894 427.83 101.566Z" fill="#E15262"/>
<path d="M511.395 143.829C515.261 143.829 518.395 140.695 518.395 136.829C518.395 132.963 515.261 129.829 511.395 129.829C507.529 129.829 504.395 132.963 504.395 136.829C504.395 140.695 507.529 143.829 511.395 143.829Z" fill="#E15262"/>
</svg>
