<svg width="691" height="552" viewBox="0 0 691 552" fill="none" xmlns="http://www.w3.org/2000/svg">
<path d="M486 542.771L318.587 240.934C318.54 240.195 318.311 239.479 317.922 238.85C317.532 238.221 316.993 237.697 316.353 237.326C315.619 236.905 314.78 236.703 313.935 236.742C313.908 236.74 313.88 236.741 313.853 236.74C313.826 236.741 313.798 236.74 313.771 236.742C312.626 236.688 311.504 237.079 310.641 237.834C309.778 238.588 309.239 239.647 309.139 240.789L131.706 542.771C131.41 543.283 131.218 543.848 131.141 544.434C131.063 545.02 131.102 545.616 131.255 546.187C131.408 546.758 131.672 547.293 132.031 547.762C132.391 548.231 132.84 548.625 133.352 548.92C133.864 549.216 134.429 549.408 135.015 549.485C135.601 549.562 136.197 549.523 136.768 549.369C137.339 549.216 137.874 548.952 138.343 548.592C138.811 548.232 139.205 547.783 139.5 547.271L313.733 250.735L478.206 547.271C478.501 547.783 478.895 548.232 479.363 548.592C479.832 548.952 480.368 549.216 480.939 549.369C481.509 549.523 482.105 549.562 482.691 549.485C483.277 549.408 483.842 549.216 484.354 548.92C484.866 548.625 485.315 548.231 485.675 547.762C486.034 547.293 486.298 546.758 486.451 546.187C486.604 545.616 486.643 545.02 486.565 544.434C486.488 543.848 486.296 543.283 486 542.771Z" fill="#3F3D56"/>
<path d="M286.112 490.984L305.035 486.642L297.294 411.589L269.366 417.996L286.112 490.984Z" fill="#FFB6B6"/>
<path d="M300.743 454.727L273.813 460.904L265.203 444.077L264.715 443.481C260.895 438.792 258.775 432.949 258.7 426.902L236.317 367.695L234.487 366.825C233.071 366.152 231.816 365.184 230.803 363.987C229.791 362.789 229.046 361.389 228.618 359.881C228.19 358.373 228.089 356.791 228.321 355.24C228.553 353.69 229.113 352.206 229.964 350.89L227.595 344.622L160.733 344.745L160.666 344.726L78.5603 321.694L87.1814 270.303L110.277 284.831C117.888 284.338 248.258 276.333 260.302 305.55C271.027 331.567 286.482 376.017 297.558 408.724C298.11 410.192 298.797 411.606 299.609 412.949C301.332 415.603 302.344 418.656 302.546 421.813C302.677 423.187 302.939 424.546 303.328 425.87C307.932 439.632 300.918 454.364 300.847 454.511L300.743 454.727Z" fill="#2F2E41"/>
<path d="M279.72 484.709L285.872 483.297L307.651 468.019L322.766 474.832L322.767 474.832C330.043 473.163 337.683 474.453 344.008 478.417C350.332 482.381 354.823 488.695 356.493 495.971L356.697 496.862L286.219 513.033L279.72 484.709Z" fill="#2F2E41"/>
<path d="M0.326521 486.394C2.25042 465.453 14.5168 444.487 34.1907 437.061C27.0354 458.781 27.7936 482.332 36.3311 503.547C39.6533 511.717 44.1991 520.458 41.5915 528.883C39.9692 534.126 35.7204 538.233 30.9082 540.871C26.0958 543.509 20.7046 544.865 15.3805 546.196L14.3535 547.102C5.22526 528.158 -1.59737 507.335 0.326521 486.394Z" fill="#F0F0F0"/>
<path d="M34.4007 437.449C23.2335 450.8 16.5572 467.331 15.3201 484.693C14.9874 488.426 15.2452 492.188 16.084 495.841C17.0161 499.373 18.8769 502.591 21.4732 505.16C23.8458 507.604 26.5558 509.83 28.2929 512.808C29.1594 514.346 29.6912 516.05 29.8531 517.807C30.0151 519.565 29.8037 521.337 29.2327 523.008C27.9183 527.206 25.1736 530.683 22.3714 533.989C19.2601 537.66 15.9703 541.423 14.7509 546.196C14.6032 546.775 13.7144 546.512 13.8619 545.934C15.9834 537.63 23.8204 532.699 27.3915 525.166C29.0578 521.651 29.6748 517.613 27.8913 514.016C26.3317 510.871 23.5391 508.573 21.1154 506.119C18.5459 503.65 16.6202 500.589 15.5064 497.204C14.4844 493.605 14.0821 489.859 14.3167 486.126C14.711 477.713 16.4256 469.415 19.3977 461.534C22.7399 452.522 27.5992 444.147 33.7654 436.773C34.1472 436.317 34.78 436.995 34.4007 437.449Z" fill="white"/>
<path d="M15.3894 479.079C12.5046 478.476 9.92808 476.868 8.11996 474.54C6.31184 472.213 5.38989 469.319 5.51872 466.374C5.52508 466.254 5.57778 466.141 5.66572 466.06C5.75366 465.978 5.86997 465.933 5.99014 465.935C6.11031 465.937 6.22497 465.986 6.30994 466.071C6.3949 466.156 6.44356 466.271 6.44565 466.391C6.32062 469.132 7.1797 471.828 8.86786 473.992C10.556 476.156 12.962 477.645 15.6516 478.19C16.236 478.31 15.9704 479.198 15.3894 479.079Z" fill="white"/>
<path d="M20.107 504.079C25.1778 500.826 28.8362 495.781 30.3528 489.951C30.5026 489.373 31.3914 489.636 31.2418 490.213C29.6523 496.277 25.8345 501.519 20.5502 504.893C20.0463 505.214 19.6058 504.398 20.107 504.079Z" fill="white"/>
<path d="M23.6276 453.372C24.6952 453.838 25.8618 454.031 27.0226 453.935C28.1834 453.838 29.3021 453.455 30.2783 452.82C30.7778 452.492 31.2178 453.308 30.7215 453.634C29.6397 454.331 28.4037 454.753 27.1214 454.862C25.8392 454.971 24.5496 454.765 23.3655 454.261C23.2499 454.223 23.1532 454.142 23.095 454.035C23.0367 453.928 23.0214 453.803 23.0521 453.685C23.0874 453.568 23.1677 453.469 23.2754 453.41C23.3832 453.351 23.5098 453.338 23.6276 453.372Z" fill="white"/>
<path d="M96.0206 472.367C95.7145 472.581 95.4084 472.794 95.1021 473.015C91.0013 475.904 87.142 479.122 83.5623 482.636C83.2813 482.904 83.0004 483.179 82.7276 483.454C74.1936 492.012 67.3228 502.081 62.4644 513.148C60.5352 517.554 58.9439 522.1 57.7044 526.747C55.9929 533.164 54.6479 540.259 51.023 545.58C50.651 546.139 50.2448 546.675 49.8065 547.184L15.539 548.285C15.4599 548.249 15.3806 548.22 15.3011 548.183L13.9349 548.29C13.9821 548.046 14.0363 547.793 14.0835 547.549C14.1103 547.407 14.1447 547.266 14.1715 547.124C14.1917 547.029 14.2124 546.935 14.2253 546.848C14.2319 546.817 14.2389 546.785 14.2458 546.761C14.2587 546.675 14.2798 546.596 14.293 546.517C14.592 545.107 14.9015 543.696 15.2213 542.285C15.2211 542.277 15.2211 542.277 15.2285 542.269C17.563 531.492 21.1677 521.031 25.9669 511.104C26.1141 510.809 26.2607 510.507 26.4236 510.213C28.6524 505.815 31.2368 501.607 34.1511 497.63C35.7539 495.458 37.4657 493.368 39.2798 491.369C43.9771 486.212 49.4563 481.826 55.5166 478.372C67.5986 471.488 81.7478 468.545 95.01 472.087C95.3492 472.178 95.6811 472.269 96.0206 472.367Z" fill="#F0F0F0"/>
<path d="M95.9576 472.805C79.0025 476.742 63.7191 485.921 52.2781 499.039C49.765 501.819 47.7058 504.978 46.1764 508.4C44.7942 511.781 44.3427 515.47 44.8687 519.085C45.2915 522.465 46.1153 525.874 45.7091 529.298C45.4751 531.047 44.8739 532.728 43.945 534.229C43.016 535.73 41.7802 537.017 40.3187 538.007C36.7413 540.568 32.4569 541.691 28.229 542.644C23.5347 543.702 18.642 544.726 14.7946 547.803C14.3284 548.176 13.7772 547.431 14.2427 547.059C20.9365 541.705 30.1622 542.487 37.549 538.622C40.9958 536.819 43.92 533.966 44.6614 530.02C45.3098 526.57 44.4633 523.054 44.0057 519.635C43.4408 516.117 43.7461 512.513 44.895 509.14C46.2452 505.652 48.1793 502.418 50.6143 499.579C55.9943 493.099 62.3596 487.506 69.4772 483.003C77.572 477.819 86.4938 474.058 95.8568 471.883C96.4363 471.749 96.5333 472.671 95.9576 472.805Z" fill="white"/>
<path d="M55.7134 494.599C53.7731 492.38 52.6845 489.544 52.642 486.598C52.5996 483.651 53.606 480.785 55.4815 478.511C55.8626 478.053 56.5933 478.623 56.2117 479.083C54.4613 481.196 53.524 483.866 53.5692 486.61C53.6144 489.354 54.6389 491.992 56.458 494.047C56.8527 494.494 56.1059 495.043 55.7134 494.599Z" fill="white"/>
<path d="M44.4287 517.399C50.436 517.855 56.3944 516.03 61.1157 512.287C61.5831 511.916 62.1345 512.661 61.6676 513.032C56.7473 516.917 50.5428 518.804 44.2925 518.316C43.6968 518.269 43.8362 517.353 44.4287 517.399Z" fill="white"/>
<path d="M77.769 479.032C78.3409 480.047 79.1559 480.904 80.1407 481.526C81.1256 482.148 82.2495 482.515 83.4116 482.596C84.0076 482.635 83.8675 483.551 83.2754 483.512C81.9919 483.418 80.7511 483.01 79.6615 482.325C78.5718 481.641 77.6664 480.7 77.0244 479.584C76.955 479.484 76.9264 479.361 76.9443 479.241C76.9622 479.121 77.0253 479.011 77.1207 478.936C77.2196 478.863 77.3432 478.833 77.4646 478.851C77.586 478.869 77.6954 478.934 77.769 479.032Z" fill="white"/>
<path d="M560.977 486.394C559.053 465.453 546.786 444.487 527.113 437.061C534.268 458.781 533.51 482.332 524.972 503.547C521.65 511.717 517.104 520.458 519.712 528.883C521.334 534.126 525.583 538.233 530.395 540.871C535.207 543.509 540.599 544.865 545.923 546.196L546.95 547.102C556.078 528.158 562.901 507.335 560.977 486.394Z" fill="#F0F0F0"/>
<path d="M526.902 437.449C538.07 450.8 544.746 467.331 545.983 484.693C546.316 488.426 546.058 492.188 545.219 495.841C544.287 499.373 542.426 502.591 539.83 505.16C537.457 507.604 534.747 509.83 533.01 512.808C532.144 514.346 531.612 516.05 531.45 517.807C531.288 519.565 531.5 521.337 532.07 523.008C533.385 527.206 536.13 530.683 538.932 533.989C542.043 537.66 545.333 541.423 546.552 546.196C546.7 546.775 547.589 546.512 547.441 545.934C545.32 537.63 537.483 532.699 533.912 525.166C532.245 521.651 531.628 517.613 533.412 514.016C534.971 510.871 537.764 508.573 540.188 506.119C542.757 503.65 544.683 500.589 545.797 497.204C546.819 493.605 547.221 489.859 546.986 486.126C546.592 477.713 544.878 469.415 541.905 461.534C538.563 452.522 533.704 444.147 527.538 436.773C527.156 436.317 526.523 436.995 526.902 437.449Z" fill="white"/>
<path d="M545.914 479.079C548.799 478.476 551.375 476.867 553.183 474.54C554.991 472.213 555.913 469.319 555.785 466.374C555.778 466.254 555.725 466.141 555.638 466.059C555.55 465.977 555.433 465.933 555.313 465.935C555.193 465.937 555.078 465.986 554.993 466.071C554.908 466.156 554.86 466.271 554.858 466.391C554.983 469.132 554.123 471.828 552.435 473.992C550.747 476.156 548.341 477.645 545.652 478.19C545.067 478.31 545.333 479.198 545.914 479.079Z" fill="white"/>
<path d="M541.196 504.079C536.125 500.826 532.467 495.781 530.95 489.951C530.801 489.373 529.912 489.636 530.061 490.213C531.651 496.277 535.469 501.519 540.753 504.893C541.257 505.214 541.697 504.398 541.196 504.079Z" fill="white"/>
<path d="M537.676 453.372C536.608 453.838 535.441 454.031 534.281 453.935C533.12 453.838 532.001 453.455 531.025 452.82C530.525 452.492 530.085 453.308 530.582 453.634C531.663 454.331 532.899 454.753 534.182 454.862C535.464 454.971 536.754 454.765 537.938 454.261C538.053 454.223 538.15 454.142 538.208 454.035C538.266 453.928 538.282 453.803 538.251 453.685C538.216 453.568 538.135 453.469 538.028 453.41C537.92 453.351 537.793 453.338 537.676 453.372Z" fill="white"/>
<path d="M465.282 472.367C465.589 472.581 465.895 472.794 466.201 473.015C470.302 475.904 474.161 479.122 477.741 482.636C478.022 482.904 478.303 483.179 478.575 483.454C487.109 492.012 493.98 502.081 498.839 513.148C500.768 517.554 502.359 522.1 503.599 526.747C505.31 533.164 506.655 540.259 510.28 545.58C510.652 546.139 511.058 546.675 511.497 547.184L545.764 548.285C545.843 548.249 545.923 548.22 546.002 548.183L547.368 548.29C547.321 548.046 547.267 547.793 547.22 547.549C547.193 547.408 547.158 547.266 547.132 547.124C547.111 547.029 547.091 546.935 547.078 546.848C547.071 546.817 547.064 546.785 547.057 546.761C547.044 546.675 547.023 546.596 547.01 546.517C546.711 545.107 546.402 543.696 546.082 542.285C546.082 542.277 546.082 542.277 546.075 542.269C543.74 531.492 540.135 521.031 535.336 511.104C535.189 510.81 535.042 510.507 534.88 510.213C532.651 505.815 530.066 501.607 527.152 497.63C525.549 495.458 523.837 493.368 522.023 491.369C517.326 486.212 511.847 481.826 505.787 478.372C493.705 471.488 479.555 468.545 466.293 472.087C465.954 472.178 465.622 472.269 465.282 472.367Z" fill="#F0F0F0"/>
<path d="M465.346 472.805C482.301 476.742 497.584 485.921 509.025 499.039C511.538 501.819 513.597 504.978 515.127 508.4C516.509 511.781 516.96 515.47 516.434 519.085C516.012 522.465 515.188 525.874 515.594 529.298C515.828 531.047 516.429 532.728 517.358 534.229C518.287 535.73 519.523 537.017 520.984 538.007C524.562 540.568 528.846 541.691 533.074 542.644C537.768 543.702 542.661 544.726 546.509 547.803C546.975 548.176 547.526 547.431 547.06 547.058C540.367 541.705 531.141 542.487 523.754 538.622C520.307 536.819 517.383 533.966 516.642 530.02C515.993 526.57 516.84 523.054 517.298 519.635C517.862 516.117 517.557 512.513 516.408 509.14C515.058 505.652 513.124 502.418 510.689 499.579C505.309 493.099 498.944 487.506 491.826 483.003C483.731 477.819 474.809 474.058 465.446 471.883C464.867 471.749 464.77 472.671 465.346 472.805Z" fill="white"/>
<path d="M505.59 494.599C507.53 492.38 508.619 489.544 508.661 486.598C508.704 483.651 507.697 480.785 505.822 478.511C505.441 478.053 504.71 478.623 505.092 479.083C506.842 481.196 507.779 483.866 507.734 486.61C507.689 489.354 506.664 491.992 504.845 494.047C504.45 494.494 505.197 495.043 505.59 494.599Z" fill="white"/>
<path d="M516.875 517.399C510.867 517.855 504.909 516.03 500.188 512.287C499.72 511.916 499.169 512.661 499.636 513.032C504.556 516.917 510.76 518.804 517.011 518.316C517.606 518.269 517.467 517.353 516.875 517.399Z" fill="white"/>
<path d="M483.534 479.032C482.962 480.047 482.147 480.904 481.162 481.526C480.178 482.148 479.054 482.515 477.892 482.596C477.296 482.635 477.436 483.551 478.028 483.512C479.311 483.418 480.552 483.01 481.642 482.325C482.731 481.641 483.637 480.7 484.279 479.584C484.348 479.484 484.377 479.361 484.359 479.241C484.341 479.121 484.278 479.011 484.182 478.936C484.083 478.863 483.96 478.833 483.839 478.851C483.717 478.869 483.608 478.934 483.534 479.032Z" fill="white"/>
<path d="M478.353 89.6221C480.838 89.6221 482.853 87.6074 482.853 85.1221C482.853 82.6368 480.838 80.6221 478.353 80.6221C475.868 80.6221 473.853 82.6368 473.853 85.1221C473.853 87.6074 475.868 89.6221 478.353 89.6221Z" fill="#3F3D56"/>
<path d="M422.004 119.784L482.671 81.6698C483.22 81.3249 483.833 81.0949 484.473 80.9935C485.113 80.8922 485.767 80.9217 486.396 81.0802C487.024 81.2387 487.614 81.523 488.13 81.9158C488.645 82.3086 489.076 82.8019 489.395 83.3658C489.715 83.9297 489.917 84.5525 489.989 85.1966C490.061 85.8407 490.002 86.4928 489.815 87.1134C489.628 87.734 489.318 88.3103 488.902 88.8075C488.486 89.3047 487.974 89.7124 487.396 90.0061L423.527 122.471C423.172 122.651 422.762 122.688 422.381 122.573C422 122.459 421.678 122.201 421.482 121.855C421.286 121.509 421.231 121.101 421.328 120.715C421.425 120.329 421.667 119.996 422.004 119.784Z" fill="#E4E4E4"/>
<path d="M300.294 201.854C299.816 201.143 299.567 200.304 299.579 199.448C299.591 198.592 299.865 197.76 300.363 197.063C301.39 195.689 302.757 194.605 304.329 193.918C307.575 192.266 311.072 191.161 314.678 190.648C317.418 190.259 320.409 190.135 322.535 188.362C324.647 186.601 325.824 183.308 328.56 183.034C331.205 182.768 333.239 185.663 335.891 185.843C339.16 186.064 341.301 182.238 344.482 181.453C346.612 180.928 348.801 181.855 350.799 182.761L362.786 188.199L368.93 190.987C371.076 191.96 373.496 193.272 373.902 195.593C374.458 198.783 370.911 201.034 367.877 202.166C346.217 210.16 322.415 210.163 300.753 202.175" fill="#E15262"/>
<path d="M318.353 260.622C405.338 260.622 475.853 250.548 475.853 238.122C475.853 225.696 405.338 215.622 318.353 215.622C231.368 215.622 160.853 225.696 160.853 238.122C160.853 250.548 231.368 260.622 318.353 260.622Z" fill="#3F3D56"/>
<path d="M637.853 377.622H529.853C524.882 377.622 520.853 381.652 520.853 386.622C520.853 391.593 524.882 395.622 529.853 395.622H637.853C642.824 395.622 646.853 391.593 646.853 386.622C646.853 381.652 642.824 377.622 637.853 377.622Z" fill="#3F3D56"/>
<path d="M690.193 217.162L654.523 386.612L663.813 429.982L681.353 511.832V548.622C681.355 548.672 681.351 548.722 681.343 548.772C681.337 549.585 681.188 550.391 680.903 551.152H666.803C666.518 550.391 666.369 549.585 666.363 548.772C666.355 548.722 666.351 548.672 666.353 548.622V513.412L650.433 439.122L647.213 424.122L640.983 395.052L639.183 386.632V386.622L640.963 378.182L642.333 371.672L675.513 214.082C675.715 213.117 676.104 212.202 676.66 211.388C677.215 210.574 677.926 209.877 678.75 209.338C679.575 208.799 680.498 208.427 681.467 208.245C682.435 208.062 683.43 208.073 684.395 208.275C685.359 208.477 686.274 208.868 687.088 209.424C687.901 209.98 688.597 210.691 689.135 211.517C689.674 212.342 690.045 213.266 690.226 214.234C690.407 215.203 690.396 216.198 690.193 217.162Z" fill="#3F3D56"/>
<path d="M537.353 386.622V548.622C537.355 548.672 537.351 548.723 537.343 548.772C537.337 549.585 537.188 550.391 536.903 551.152H522.803C522.518 550.391 522.369 549.585 522.363 548.772C522.355 548.723 522.351 548.672 522.353 548.622V386.622C522.353 384.633 523.143 382.725 524.55 381.319C525.956 379.912 527.864 379.122 529.853 379.122C531.842 379.122 533.75 379.912 535.156 381.319C536.563 382.725 537.353 384.633 537.353 386.622Z" fill="#3F3D56"/>
<path d="M547.853 359.622H619.853C627.014 359.622 633.881 362.467 638.945 367.53C644.008 372.594 646.853 379.461 646.853 386.622H520.853C520.853 379.461 523.698 372.594 528.761 367.53C533.825 362.467 540.692 359.622 547.853 359.622Z" fill="#3F3D56"/>
<path d="M655.853 439.122H529.853C527.864 439.122 525.956 438.332 524.55 436.925C523.143 435.519 522.353 433.611 522.353 431.622C522.353 429.633 523.143 427.725 524.55 426.319C525.956 424.912 527.864 424.122 529.853 424.122H655.853C657.842 424.122 659.75 424.912 661.156 426.319C662.563 427.725 663.353 429.633 663.353 431.622C663.353 433.611 662.563 435.519 661.156 436.925C659.75 438.332 657.842 439.122 655.853 439.122Z" fill="#3F3D56"/>
<path d="M69.7621 395.895H196.853C201.824 395.895 205.853 391.865 205.853 386.895V384.168C205.853 379.197 201.824 375.168 196.853 375.168H69.7621C64.7916 375.168 60.7621 379.197 60.7621 384.168V386.895C60.7621 391.865 64.7916 395.895 69.7621 395.895Z" fill="#3F3D56"/>
<path d="M68.4532 385.652L66.1529 395.132L57.713 429.852L54.0733 444.852L37.1729 514.432V544.622C37.1774 546.1 36.7386 547.546 35.9132 548.772C35.2642 549.764 34.3818 550.581 33.3433 551.152H26.003C24.9646 550.581 24.0821 549.764 23.4332 548.772C22.6076 547.546 22.1687 546.1 22.1729 544.622V512.632L40.9532 435.332L53.0733 385.412L11.9732 190.162C11.7698 189.198 11.7583 188.204 11.9395 187.236C12.1206 186.268 12.4908 185.345 13.0288 184.52C13.5668 183.695 14.2622 182.984 15.0751 182.428C15.8881 181.872 16.8026 181.482 17.7666 181.279C18.7305 181.077 19.7248 181.067 20.6927 181.249C21.6607 181.431 22.5832 181.802 23.4076 182.341C24.232 182.88 24.9421 183.576 25.4972 184.39C26.0524 185.203 26.4418 186.118 26.6431 187.082L64.6334 367.512L66.3834 375.832L68.4229 385.532L68.4532 385.652Z" fill="#3F3D56"/>
<path d="M202.993 385.532V544.622C202.998 546.1 202.559 547.546 201.733 548.772C201.084 549.764 200.202 550.581 199.163 551.152H191.813C190.779 550.578 189.901 549.761 189.253 548.772C188.428 547.546 187.989 546.1 187.993 544.622V385.532C187.993 383.543 188.783 381.635 190.19 380.229C191.596 378.822 193.504 378.032 195.493 378.032C197.482 378.032 199.39 378.822 200.797 380.229C202.203 381.635 202.993 383.543 202.993 385.532Z" fill="#3F3D56"/>
<path d="M205.853 385.531H60.7621V381.44C60.7621 377.895 61.4605 374.384 62.8174 371.108C64.1743 367.832 66.1631 364.856 68.6703 362.348C71.1774 359.841 74.1539 357.852 77.4297 356.496C80.7055 355.139 84.2165 354.44 87.7621 354.44H178.853C186.014 354.44 192.882 357.285 197.945 362.348C203.009 367.412 205.853 374.279 205.853 381.44L205.853 385.531Z" fill="#3F3D56"/>
<path d="M195.49 444.849H50.3984C48.4093 444.849 46.5017 444.059 45.0952 442.652C43.6886 441.246 42.8984 439.338 42.8984 437.349C42.8984 435.36 43.6886 433.452 45.0952 432.046C46.5017 430.639 48.4093 429.849 50.3984 429.849H195.49C197.479 429.849 199.386 430.639 200.793 432.046C202.199 433.452 202.99 435.36 202.99 437.349C202.99 439.338 202.199 441.246 200.793 442.652C199.386 444.059 197.479 444.849 195.49 444.849Z" fill="#3F3D56"/>
<path d="M381.954 510.273L366.191 502.734L387.844 436.845L411.11 447.971L381.954 510.273Z" fill="#9E616A"/>
<path d="M488.783 504.305L471.833 508.487L447.274 443.64L472.292 437.467L488.783 504.305Z" fill="#9E616A"/>
<path d="M423.816 223.889C426.065 227.541 429.651 230.169 433.811 231.212C437.97 232.256 442.372 231.632 446.078 229.474C446.823 229.023 447.53 228.511 448.191 227.943L498.027 256.543L495.863 227.185L448.869 204.527C446.312 201.958 442.975 200.311 439.381 199.843C435.787 199.375 432.139 200.112 429.009 201.94C427.207 203.022 425.64 204.454 424.4 206.151C423.16 207.847 422.271 209.775 421.788 211.821C421.304 213.866 421.234 215.987 421.582 218.06C421.931 220.133 422.69 222.115 423.816 223.889Z" fill="#9E616A"/>
<path d="M476.601 245.774L485.41 251.142L524.974 275.268C527.573 276.894 530.467 277.992 533.49 278.499C536.514 279.006 539.607 278.912 542.594 278.223C545.581 277.533 548.403 276.262 550.898 274.481C553.394 272.7 555.513 270.445 557.137 267.845C560.066 263.018 561.102 257.278 560.046 251.732L542.461 163.879C541.812 160.431 540.425 157.163 538.396 154.299C536.368 151.436 533.744 149.044 530.706 147.287C527.668 145.531 524.286 144.451 520.792 144.122C517.298 143.793 513.774 144.222 510.461 145.381C504.893 147.337 500.279 151.342 497.559 156.58C494.838 161.818 494.216 167.895 495.818 173.576L514.205 235.923L486.02 222.783L476.601 245.774Z" fill="#E6E6E6"/>
<path d="M455.772 486.132L428.648 431.733L428.652 431.609L431.33 331.833C431.363 330.945 431.435 330.054 431.543 329.177C432.016 325.176 433.281 321.31 435.264 317.803C437.246 314.296 439.907 311.219 443.092 308.751C446.141 306.365 449.635 304.61 453.37 303.589C457.105 302.567 461.006 302.3 464.845 302.802L542.405 312.839L545.095 301.84L545.596 301.658L619.91 274.422L620.339 275.12C630.071 290.956 636.875 322.589 638.729 331.907L638.755 332.042C638.794 332.238 638.818 332.357 638.826 332.392C642.652 348.292 626.844 374.633 611.097 378.592C577.926 387.046 548.261 380.452 513.911 372.814C501.594 370.074 488.864 367.243 474.842 364.795L475.259 373.048C475.6 379.4 476.92 385.661 479.171 391.61C481.671 398.933 483.646 404.716 479.47 416.775L477.45 422.609C478.498 425.505 478.859 428.605 478.504 431.664C478.149 434.723 477.088 437.658 475.406 440.238L475 440.858L492.887 486.122L455.772 486.132Z" fill="#2F2E41"/>
<path d="M411.207 462.075L378.862 459.069L390.321 422.422C392.686 398.493 398.644 375.057 407.995 352.905L423.625 315.863C423.662 315.039 423.731 314.209 423.832 313.396C424.305 309.395 425.569 305.529 427.552 302.022C429.535 298.515 432.196 295.438 435.38 292.971C438.43 290.586 441.924 288.831 445.659 287.81C449.393 286.789 453.294 286.521 457.133 287.022L534.579 297.044L537.952 268.733L612.286 258.786L612.626 259.34C625.619 280.48 633.868 297.03 638.586 311.423C638.822 312.157 639.033 312.906 639.212 313.652C643.064 329.661 633.449 345.891 617.779 349.831C577.844 360.013 529.821 359.73 466.682 348.937L436.125 421.657C433.205 428.603 429.588 435.235 425.332 441.453L411.207 462.075Z" fill="#2F2E41"/>
<path d="M524.031 94.9612C544.724 94.9612 561.498 77.8126 561.498 56.6588C561.498 35.505 544.724 18.3564 524.031 18.3564C503.338 18.3564 486.563 35.505 486.563 56.6588C486.563 77.8126 503.338 94.9612 524.031 94.9612Z" fill="#9E616A"/>
<path d="M534.849 298.381L529.473 279.122L528.152 269.622L520.425 269.88L505.26 234.876L499.37 225.646C498.168 224.382 497.08 223.166 496.105 221.998C489.968 215.061 485.047 207.137 481.55 198.56C479.1 192.398 477.661 185.881 477.289 179.26C476.19 159.702 484.434 139.01 502.495 116.005C502.199 115.191 502.001 114.344 501.906 113.483C501.583 110.688 502.377 107.879 504.115 105.667C505.852 103.454 508.393 102.017 511.185 101.669L528.604 99.7128C529.959 99.5594 531.33 99.6768 532.639 100.058C533.948 100.44 535.167 101.078 536.227 101.935C537.334 102.822 538.253 103.921 538.93 105.166C539.608 106.412 540.031 107.78 540.175 109.191C540.408 111.373 539.979 113.575 538.943 115.51C547.822 116.637 556.188 120.302 563.036 126.065C569.884 131.827 574.925 139.443 577.553 147.999C587.976 167.457 596.284 187.976 602.334 209.205C603.527 213.363 602.996 217.647 602.482 221.79C602.008 225.618 601.517 229.575 602.342 233.519C603.181 237.531 605.199 241.556 607.336 245.816C609.784 250.696 612.314 255.742 612.999 260.886L613.047 261.247L534.849 298.381Z" fill="#E4E4E4"/>
<path opacity="0.2" d="M482.013 198.371C485.494 206.898 490.388 214.777 496.488 221.677C497.533 222.924 498.637 224.15 499.792 225.378L505.719 234.678C527.567 218.301 545.269 153.82 545.269 153.82L520.617 149.024L482.013 198.371Z" fill="black"/>
<path d="M467.089 98.5394C469.247 102.247 469.874 106.651 468.835 110.814C467.796 114.977 465.174 118.57 461.527 120.829C460.778 121.277 459.993 121.661 459.181 121.979L460.926 179.414L436.054 163.757L438.21 111.616C437.152 108.147 437.272 104.424 438.552 101.03C439.832 97.6358 442.199 94.7606 445.285 92.8533C447.082 91.7661 449.079 91.0501 451.158 90.7477C453.236 90.4453 455.355 90.5626 457.387 91.0927C459.42 91.6227 461.325 92.5548 462.992 93.8339C464.658 95.1129 466.051 96.7129 467.089 98.5394Z" fill="#9E616A"/>
<path d="M463.112 157.734L435.76 161.624L436.936 218.265C437.005 222.306 438.105 226.262 440.133 229.758C442.161 233.254 445.049 236.173 448.523 238.238C452.766 240.734 457.707 241.784 462.599 241.229C467.492 240.673 472.071 238.543 475.647 235.158L540.222 173.046C544.766 168.736 547.485 162.848 547.821 156.595C548.156 150.341 546.083 144.197 542.027 139.425C540.019 137.049 537.555 135.101 534.781 133.696C532.006 132.29 528.978 131.457 525.875 131.244C522.772 131.032 519.658 131.445 516.718 132.459C513.778 133.473 511.071 135.067 508.759 137.147C508.121 137.718 507.514 138.322 506.941 138.958L464.301 188.011L463.112 157.734Z" fill="#E6E6E6"/>
<path d="M234.345 527.19L253.759 527.189L262.995 452.305L234.342 452.306L234.345 527.19Z" fill="#FFB6B6"/>
<path d="M124.302 96.073C145.703 96.073 163.051 78.7248 163.051 57.3246C163.051 35.9244 145.703 18.5762 124.302 18.5762C102.902 18.5762 85.554 35.9244 85.554 57.3246C85.554 78.7248 102.902 96.073 124.302 96.073Z" fill="#FFB6B6"/>
<path d="M260.096 504.122H232.604L225.595 494.727L223.698 485.875L222.065 484.295C219.849 482.169 218.417 479.357 218 476.315C217.583 473.273 218.206 470.179 219.767 467.535L199.842 374.574C194.624 374.115 135.773 368.853 94.8635 361.613C84.3939 359.76 76.2198 354.671 70.568 346.487C56.6803 326.376 62.6294 293.836 62.691 293.51L62.7596 293.147L63.1265 293.105L158.681 282.38L158.81 282.441C161.981 283.943 236.611 319.373 248.807 331.569C254.314 337.076 266.601 369.796 269.352 404.583C269.844 410.814 268.071 417.161 266.356 423.298C264.752 429.041 263.093 434.979 263.42 440.593C263.926 449.254 264.406 458.34 264.845 467.598C264.916 469.073 266.027 470.6 267.102 472.076C268.225 473.619 269.285 475.075 269.353 476.6C270.006 491.384 260.343 503.808 260.246 503.932L260.096 504.122Z" fill="#2F2E41"/>
<path d="M266.356 160.531C264.274 159.962 262.093 159.856 259.966 160.221C257.839 160.586 255.818 161.413 254.046 162.644C252.273 163.874 250.792 165.478 249.706 167.343C248.621 169.208 247.957 171.289 247.762 173.438L215.567 183.5L216.91 204.557L262.177 189.708C265.809 189.796 269.347 188.548 272.12 186.201C274.894 183.855 276.711 180.572 277.226 176.976C277.741 173.379 276.919 169.719 274.915 166.688C272.912 163.657 269.866 161.466 266.356 160.531Z" fill="#FFB6B6"/>
<path d="M245.349 195.375L221.287 204.482L220.672 205.676C219.197 208.538 216.645 210.696 213.578 211.677C210.512 212.658 207.181 212.38 204.319 210.905L150.235 231.375C150.235 231.375 126.082 207.204 108.886 185.634L114.746 149.586C116.104 141.222 118.989 133.179 123.257 125.86C158.523 133.593 178.767 182.892 178.767 182.892L242.326 170.765L245.349 195.375Z" fill="#E15262"/>
<path d="M118.796 94.0019C109.095 96.6218 98.4008 93.1386 90.8304 86.5313C83.26 79.9241 78.5244 70.5617 75.7958 60.8911C73.7974 53.8085 72.8498 45.9466 76.0034 39.2974C79.1569 32.6482 87.6442 28.1622 94.1922 31.5209C90.1528 26.8147 92.1708 19.0309 96.8885 15.0049C101.606 10.9789 108.084 9.82463 114.254 9.19366C123.208 8.27796 132.457 8.17548 140.978 11.0764C149.499 13.9772 157.24 20.3193 159.907 28.9161C162.631 30.1842 165.698 30.5132 168.628 29.8516C171.559 29.1899 174.187 27.575 176.102 25.2597C176.595 27.9188 176.199 30.6665 174.974 33.0775C173.748 35.4886 171.763 37.4288 169.324 38.5977L182.379 34.3651C184.624 39.1175 180.69 44.9993 175.659 46.5212C170.628 48.0431 165.198 46.3796 160.424 44.1809C155.649 41.9822 151.023 39.2024 145.837 38.3449C140.652 37.4874 134.56 39.1537 132.162 43.8305C130.905 46.2801 130.84 49.1489 130.11 51.8035C129.381 54.4581 127.533 57.2102 124.789 57.4275C123.055 57.5647 121.357 56.6412 119.628 56.83C117.485 57.0641 115.844 59.0059 115.273 61.0852C114.843 63.2042 114.838 65.3876 115.258 67.5087L118.574 92.8567" fill="#2F2E41"/>
<path d="M70.7907 351.117C70.7834 351.117 70.776 351.116 70.7689 351.115L70.4625 351.063L70.3739 350.765C69.2599 347.018 67.8422 343.182 66.4713 339.473C64.4522 334.336 62.7474 329.08 61.3663 323.736C60.2793 318.627 59.5257 313.453 59.1101 308.246C58.7276 304.465 58.3321 300.556 57.6596 296.708C57.361 295 58.4926 293.381 59.587 291.816C60.6016 290.366 61.5601 288.995 61.359 287.699C61.1533 286.373 59.6831 284.917 58.2613 283.509C56.7029 281.965 55.0913 280.369 54.8631 278.689C51.757 255.769 50.3113 232.655 50.5372 209.526C50.8582 177.525 52.3044 155.713 54.8354 144.695C61.6412 115.068 93.0843 109.661 98.0059 108.994C98.5301 107.597 99.3361 106.324 100.374 105.253C101.411 104.182 102.658 103.335 104.037 102.767C105.416 102.198 106.897 101.919 108.388 101.948C109.879 101.976 111.348 102.311 112.704 102.932L135.045 113.159C139.577 115.241 143.632 118.232 146.959 121.948C150.285 125.663 152.812 130.023 154.383 134.756L157.702 144.874L159.364 212.793L150.152 260.622L168.152 287.622C72.218 340.292 71.0997 351.117 70.7907 351.117Z" fill="#E15262"/>
<path d="M223.898 519.644L230.211 519.644L254.854 509.622L268.063 519.643H268.064C275.529 519.643 282.687 522.608 287.965 527.886C293.243 533.164 296.209 540.323 296.209 547.787V548.702L223.9 548.704L223.898 519.644Z" fill="#2F2E41"/>
<path d="M274.417 208.998C272.556 207.906 270.478 207.235 268.33 207.032C266.181 206.83 264.014 207.101 261.982 207.826C259.95 208.552 258.101 209.714 256.567 211.231C255.032 212.748 253.849 214.584 253.1 216.608L219.395 217.922L214.853 233.622L262.77 236.075C266.254 237.107 269.995 236.826 273.285 235.284C276.574 233.742 279.184 231.047 280.62 227.71C282.056 224.372 282.217 220.624 281.074 217.175C279.931 213.727 277.562 210.817 274.417 208.998Z" fill="#FFB6B6"/>
<path d="M246.73 237.768L212.108 237.336L207.725 237.277L137.284 236.39C137.284 236.39 118.155 218.14 101.499 199.352L103.833 182.465C106.111 165.893 114.332 150.713 126.966 139.75C150.822 155.69 164.656 187.242 164.656 187.242L187.853 197.622C204.178 198.352 220.085 203.011 234.225 211.203L241.853 215.622L246.73 237.768Z" fill="#E15262"/>
<path d="M501.152 536.246L489.632 539.089L484.891 528.721L482.309 540.896L451.755 548.437C450.291 548.798 448.749 548.682 447.355 548.105C445.961 547.529 444.788 546.521 444.007 545.231C443.226 543.94 442.878 542.434 443.014 540.931C443.15 539.429 443.763 538.009 444.763 536.88L465.003 514.007L462.29 503.012L488.332 498.21L501.152 536.246Z" fill="#2F2E41"/>
<path d="M379.11 539.801L368.124 535.317L370.397 524.145L361.141 532.467L332.004 520.574C330.608 520.004 329.43 519.002 328.643 517.716C327.856 516.429 327.5 514.924 327.629 513.421C327.758 511.918 328.363 510.495 329.358 509.361C330.352 508.227 331.683 507.44 333.156 507.115L362.983 500.543L367.263 490.058L391.14 501.508L379.11 539.801Z" fill="#2F2E41"/>
<path d="M340.853 234.122H331.853C322.176 234.111 312.898 230.262 306.056 223.419C299.213 216.577 295.364 207.299 295.353 197.622V197.122H377.353V197.622C377.342 207.299 373.493 216.577 366.65 223.419C359.808 230.262 350.53 234.111 340.853 234.122Z" fill="#E4E4E4"/>
<path d="M331.853 184.122C331.853 186.607 327.353 188.622 327.353 188.622C327.353 188.622 322.853 186.607 322.853 184.122C322.853 181.637 327.353 179.622 327.353 179.622C327.353 179.622 331.853 181.637 331.853 184.122Z" fill="#3F3D56"/>
<path d="M358.853 184.122C358.853 186.607 354.353 188.622 354.353 188.622C354.353 188.622 349.853 186.607 349.853 184.122C349.853 181.637 354.353 179.622 354.353 179.622C354.353 179.622 358.853 181.637 358.853 184.122Z" fill="#3F3D56"/>
<path d="M340.853 193.122C340.853 195.607 336.353 197.622 336.353 197.622C336.353 197.622 331.853 195.607 331.853 193.122C331.853 190.637 336.353 188.622 336.353 188.622C336.353 188.622 340.853 190.637 340.853 193.122Z" fill="#3F3D56"/>
<path d="M309.353 174.622C311.838 174.622 313.853 172.607 313.853 170.122C313.853 167.637 311.838 165.622 309.353 165.622C306.868 165.622 304.853 167.637 304.853 170.122C304.853 172.607 306.868 174.622 309.353 174.622Z" fill="#3F3D56"/>
<path d="M243.907 160.451L314.88 170.253C315.522 170.342 316.14 170.56 316.695 170.894C317.251 171.227 317.733 171.671 318.112 172.196C318.492 172.721 318.761 173.318 318.903 173.951C319.046 174.583 319.058 175.237 318.941 175.875C318.823 176.512 318.577 177.119 318.219 177.659C317.86 178.199 317.395 178.66 316.853 179.016C316.311 179.371 315.703 179.613 315.064 179.726C314.426 179.84 313.772 179.823 313.14 179.676L243.347 163.489C242.959 163.399 242.621 163.163 242.403 162.83C242.185 162.497 242.103 162.093 242.176 161.702C242.248 161.311 242.468 160.962 242.791 160.729C243.113 160.496 243.513 160.397 243.907 160.451Z" fill="#E4E4E4"/>
<path d="M624.29 40.0473C617.921 32.6204 614.893 22.7668 609.802 14.3332C604.711 5.89952 595.851 -1.64864 586.491 0.313951C580.039 1.66695 575.053 7.36041 572.528 13.708C570.004 20.0555 569.531 27.0556 569.089 33.9132C569.245 19.8205 559.96 6.1584 547.17 1.66158C534.381 -2.83525 519.075 2.18074 511.038 13.5026C507.531 10.252 502.953 8.40112 498.173 8.30077C493.392 8.20041 488.74 9.85758 485.1 12.9581C477.911 19.3829 476.321 31.6115 481.607 39.8065C486.894 48.0015 498.343 51.0543 506.744 46.5093L509.715 49.2415C508.043 55.089 511.285 61.9963 516.735 64.1975C521.155 65.9826 527.394 65.6855 529.048 70.3234C530.203 73.564 528.043 77.0231 525.745 79.5133C523.448 82.0035 520.72 84.575 520.444 88.021C520.027 93.2204 525.4 96.8627 530.284 97.9596C542.062 100.605 555.13 95.1509 561.918 84.7573C562.049 84.5568 562.191 84.3562 562.345 84.1552C566.153 79.2849 568.928 73.6892 570.501 67.7101C572.074 61.7309 572.411 55.4939 571.492 49.38C571.111 46.9777 571.495 45.191 573.152 44.622C580.31 42.163 600.367 47.324 606.437 51.9884C612.507 56.6527 617.368 62.8256 623.215 67.791C629.062 72.7564 636.513 76.5866 643.936 75.2344C649.882 74.1514 654.94 69.8348 658.343 64.6282C661.745 59.4215 663.703 53.3524 665.456 47.3209C652.308 54.9162 634.314 51.7368 624.29 40.0473Z" fill="#2F2E41"/>
</svg>
