<svg width="440" height="459" viewBox="0 0 440 459" fill="none" xmlns="http://www.w3.org/2000/svg">
<rect x="44" y="420" width="352" height="38" rx="19" fill="white"/>
<rect x="1" width="437" height="428" rx="13" fill="white"/>
<path d="M430.72 1.97369e-09H8.72021C6.40812 0.00198596 4.19129 0.921333 2.55637 2.55621C0.921444 4.19109 0.00204429 6.4079 0 8.72V420.04C0.00205751 422.352 0.921447 424.569 2.55637 426.204C4.19129 427.839 6.40812 428.758 8.72021 428.76H45.7202V426.27H8.72021C7.06851 426.268 5.48498 425.611 4.31705 424.443C3.14911 423.275 2.49213 421.692 2.4902 420.04V8.72C2.49212 7.06829 3.14911 5.48477 4.31705 4.31683C5.48498 3.1489 7.0685 2.49192 8.72021 2.49001H430.72C432.373 2.48987 433.959 3.14588 435.129 4.31396C436.299 5.48205 436.958 7.06672 436.96 8.72V420.04C436.961 421.257 436.603 422.446 435.93 423.46C435.332 424.352 434.521 425.081 433.57 425.58C432.689 426.035 431.712 426.272 430.72 426.27H393.72V428.76H430.72C431.981 428.76 433.227 428.486 434.371 427.958C435.516 427.43 436.532 426.659 437.35 425.7C437.42 425.625 437.483 425.545 437.54 425.46C438.061 424.824 438.482 424.112 438.79 423.35C439.229 422.302 439.454 421.176 439.45 420.04V8.72C439.448 6.40638 438.527 4.18842 436.89 2.55338C435.253 0.918334 433.034 -4.91605e-05 430.72 1.97369e-09Z" fill="#3F3D56"/>
<path d="M438.199 34.953H1.24231V37.4458H438.199V34.953Z" fill="#3F3D56"/>
<path d="M22.4312 26.1784C26.5614 26.1784 29.9096 22.8302 29.9096 18.7C29.9096 14.5698 26.5614 11.2216 22.4312 11.2216C18.301 11.2216 14.9528 14.5698 14.9528 18.7C14.9528 22.8302 18.301 26.1784 22.4312 26.1784Z" fill="#3F3D56"/>
<path d="M43.9317 26.1784C48.0619 26.1784 51.4101 22.8302 51.4101 18.7C51.4101 14.5698 48.0619 11.2216 43.9317 11.2216C39.8015 11.2216 36.4532 14.5698 36.4532 18.7C36.4532 22.8302 39.8015 26.1784 43.9317 26.1784Z" fill="#3F3D56"/>
<path d="M65.4322 26.1784C69.5624 26.1784 72.9106 22.8302 72.9106 18.7C72.9106 14.5698 69.5624 11.2216 65.4322 11.2216C61.3019 11.2216 57.9537 14.5698 57.9537 18.7C57.9537 22.8302 61.3019 26.1784 65.4322 26.1784Z" fill="#3F3D56"/>
<path d="M325.224 92.6557H114.224C110.777 92.6557 107.47 91.2861 105.032 88.8481C102.594 86.4102 101.224 83.1036 101.224 79.6558C101.224 76.2079 102.594 72.9013 105.032 70.4634C107.47 68.0254 110.777 66.6558 114.224 66.6558H325.224C328.672 66.6558 331.979 68.0254 334.417 70.4634C336.855 72.9013 338.224 76.2079 338.224 79.6558C338.224 83.1036 336.855 86.4102 334.417 88.8481C331.979 91.2861 328.672 92.6557 325.224 92.6557ZM114.224 68.6558C111.307 68.6558 108.509 69.8147 106.446 71.8776C104.383 73.9405 103.224 76.7384 103.224 79.6558C103.224 82.5731 104.383 85.371 106.446 87.4339C108.509 89.4968 111.307 90.6557 114.224 90.6557H325.224C328.142 90.6557 330.94 89.4968 333.003 87.4339C335.066 85.371 336.224 82.5731 336.224 79.6558C336.224 76.7384 335.066 73.9405 333.003 71.8776C330.94 69.8147 328.142 68.6558 325.224 68.6558H114.224Z" fill="#3F3D56"/>
<path d="M378.724 274.25H60.7244C56.2172 274.245 51.8962 272.452 48.7092 269.265C45.5221 266.078 43.7294 261.757 43.7244 257.25V155.25C43.7294 150.743 45.5221 146.422 48.7092 143.235C51.8962 140.048 56.2172 138.255 60.7244 138.25H378.724C383.231 138.255 387.553 140.048 390.74 143.235C393.927 146.422 395.719 150.743 395.724 155.25V257.25C395.719 261.757 393.927 266.078 390.74 269.265C387.553 272.452 383.231 274.245 378.724 274.25ZM60.7244 140.25C56.7475 140.254 52.9348 141.836 50.1227 144.648C47.3107 147.46 45.7289 151.273 45.7244 155.25V257.25C45.7289 261.227 47.3107 265.04 50.1227 267.852C52.9348 270.664 56.7475 272.246 60.7244 272.25H378.724C382.701 272.246 386.514 270.664 389.326 267.852C392.138 265.04 393.72 261.227 393.724 257.25V155.25C393.72 151.273 392.138 147.46 389.326 144.648C386.514 141.836 382.701 140.254 378.724 140.25H60.7244Z" fill="#3F3D56"/>
<path d="M261.425 200.75H150.425C148.304 200.75 146.269 199.907 144.768 198.407C143.268 196.907 142.425 194.872 142.425 192.75C142.425 190.628 143.268 188.593 144.768 187.093C146.269 185.593 148.304 184.75 150.425 184.75H261.425C263.547 184.75 265.582 185.593 267.082 187.093C268.582 188.593 269.425 190.628 269.425 192.75C269.425 194.872 268.582 196.907 267.082 198.407C265.582 199.907 263.547 200.75 261.425 200.75Z" fill="#E15262"/>
<path d="M364.425 227.75H150.425C148.304 227.75 146.269 226.907 144.768 225.407C143.268 223.907 142.425 221.872 142.425 219.75C142.425 217.628 143.268 215.593 144.768 214.093C146.269 212.593 148.304 211.75 150.425 211.75H364.425C366.547 211.75 368.582 212.593 370.082 214.093C371.582 215.593 372.425 217.628 372.425 219.75C372.425 221.872 371.582 223.907 370.082 225.407C368.582 226.907 366.547 227.75 364.425 227.75Z" fill="#E15262"/>
<path d="M97.0236 236.25C113.592 236.25 127.024 222.819 127.024 206.25C127.024 189.681 113.592 176.25 97.0236 176.25C80.4551 176.25 67.0236 189.681 67.0236 206.25C67.0236 222.819 80.4551 236.25 97.0236 236.25Z" fill="#E15262"/>
<path d="M364.413 260.25H336.413C334.292 260.25 332.257 259.407 330.757 257.907C329.256 256.407 328.413 254.372 328.413 252.25C328.413 250.128 329.256 248.093 330.757 246.593C332.257 245.093 334.292 244.25 336.413 244.25H364.413C366.535 244.25 368.57 245.093 370.07 246.593C371.571 248.093 372.413 250.128 372.413 252.25C372.413 254.372 371.571 256.407 370.07 257.907C368.57 259.407 366.535 260.25 364.413 260.25Z" fill="white"/>
<path d="M364.413 260.25H336.413C334.292 260.25 332.257 259.407 330.757 257.907C329.256 256.407 328.413 254.372 328.413 252.25C328.413 250.128 329.256 248.093 330.757 246.593C332.257 245.093 334.292 244.25 336.413 244.25H364.413C366.535 244.25 368.57 245.093 370.07 246.593C371.571 248.093 372.413 250.128 372.413 252.25C372.413 254.372 371.571 256.407 370.07 257.907C368.57 259.407 366.535 260.25 364.413 260.25Z" fill="#CCCCCC"/>
<path d="M378.72 322.25H60.7202C56.2135 322.256 51.8932 324.049 48.7065 327.236C45.5197 330.423 43.7266 334.743 43.7202 339.25V441.25C43.7266 445.757 45.5197 450.077 48.7065 453.264C51.8932 456.451 56.2135 458.244 60.7202 458.25H378.72C383.227 458.245 387.549 456.453 390.736 453.266C393.923 450.079 395.715 445.757 395.72 441.25V339.25C395.715 334.743 393.923 330.422 390.736 327.234C387.549 324.047 383.227 322.255 378.72 322.25ZM393.72 441.25C393.717 445.227 392.136 449.041 389.323 451.853C386.511 454.665 382.697 456.247 378.72 456.25H60.7202C56.7435 456.245 52.931 454.663 50.119 451.851C47.307 449.039 45.7251 445.227 45.7202 441.25V339.25C45.7251 335.273 47.307 331.461 50.119 328.649C52.931 325.837 56.7435 324.255 60.7202 324.25H378.72C382.697 324.253 386.511 325.835 389.323 328.647C392.136 331.459 393.717 335.273 393.72 339.25V441.25Z" fill="#3F3D56"/>
<path d="M261.425 384.75H150.425C148.304 384.75 146.269 383.907 144.768 382.407C143.268 380.907 142.425 378.872 142.425 376.75C142.425 374.628 143.268 372.593 144.768 371.093C146.269 369.593 148.304 368.75 150.425 368.75H261.425C263.547 368.75 265.582 369.593 267.082 371.093C268.582 372.593 269.425 374.628 269.425 376.75C269.425 378.872 268.582 380.907 267.082 382.407C265.582 383.907 263.547 384.75 261.425 384.75Z" fill="#E15262"/>
<path d="M364.425 411.75H150.425C148.304 411.75 146.269 410.907 144.768 409.407C143.268 407.907 142.425 405.872 142.425 403.75C142.425 401.628 143.268 399.593 144.768 398.093C146.269 396.593 148.304 395.75 150.425 395.75H364.425C366.547 395.75 368.582 396.593 370.082 398.093C371.582 399.593 372.425 401.628 372.425 403.75C372.425 405.872 371.582 407.907 370.082 409.407C368.582 410.907 366.547 411.75 364.425 411.75Z" fill="#E15262"/>
<path d="M97.0236 420.25C113.592 420.25 127.024 406.819 127.024 390.25C127.024 373.681 113.592 360.25 97.0236 360.25C80.4551 360.25 67.0236 373.681 67.0236 390.25C67.0236 406.819 80.4551 420.25 97.0236 420.25Z" fill="#E15262"/>
<path d="M364.413 444.25H336.413C334.292 444.25 332.257 443.407 330.757 441.907C329.256 440.407 328.413 438.372 328.413 436.25C328.413 434.128 329.256 432.093 330.757 430.593C332.257 429.093 334.292 428.25 336.413 428.25H364.413C366.535 428.25 368.57 429.093 370.07 430.593C371.571 432.093 372.413 434.128 372.413 436.25C372.413 438.372 371.571 440.407 370.07 441.907C368.57 443.407 366.535 444.25 364.413 444.25Z" fill="#CCCCCC"/>
</svg>
