<svg width="538" height="771" viewBox="0 0 538 771" fill="none" xmlns="http://www.w3.org/2000/svg">
<path d="M503.475 262.403L499.684 261.129L534.484 157.257C539.825 141.313 538.614 123.901 531.117 108.85C523.62 93.7987 510.452 82.3424 494.508 77.001L494.505 77L274.433 3.28398C258.489 -2.05747 241.077 -0.846502 226.026 6.65047C210.975 14.1474 199.518 27.3163 194.177 43.2601L194.176 43.263L3.28396 613.113C0.639139 621.008 -0.424856 629.346 0.152764 637.651C0.730385 645.957 2.93829 654.068 6.65041 661.52C10.3625 668.973 15.5062 675.621 21.7877 681.086C28.0692 686.55 35.3655 690.724 43.26 693.369L43.263 693.37L263.33 767.09C279.274 772.431 296.686 771.219 311.737 763.722C326.787 756.225 338.243 743.056 343.584 727.112L474.913 335.072L478.705 336.342L503.475 262.403Z" fill="#3F3D56"/>
<path d="M491.684 93.4569L462.958 83.8339C463.194 87.5151 462.521 91.1979 460.998 94.5578C459.476 97.9177 457.15 100.852 454.227 103.101C451.304 105.351 447.872 106.847 444.234 107.458C440.596 108.068 436.864 107.775 433.366 106.604L307.294 64.3709C303.797 63.1983 300.642 61.1837 298.106 58.5046C295.571 55.8255 293.734 52.5641 292.756 49.0077C291.778 45.4512 291.689 41.7088 292.498 38.1101C293.307 34.5114 294.988 31.1668 297.394 28.3709L270.564 19.3829C258.657 15.3943 245.653 16.2991 234.413 21.8981C223.173 27.4972 214.618 37.3319 210.629 49.2389L20.0099 618.252C16.0213 630.159 16.926 643.163 22.5251 654.403C28.1241 665.643 37.9589 674.198 49.8659 678.187L270.993 752.262C282.9 756.251 295.904 755.346 307.144 749.747C318.384 744.148 326.939 734.313 330.928 722.406L521.542 153.392C525.53 141.485 524.625 128.481 519.026 117.241C513.427 106.001 503.591 97.4454 491.684 93.4569Z" fill="white"/>
<path d="M436.384 284.355L200.4 205.303C199.242 204.913 198.285 204.081 197.741 202.987C197.196 201.893 197.107 200.628 197.494 199.469L217.104 140.929C217.493 139.771 218.326 138.814 219.42 138.27C220.514 137.725 221.779 137.636 222.938 138.023L458.924 217.076C460.082 217.465 461.038 218.298 461.583 219.392C462.128 220.486 462.217 221.751 461.83 222.91L442.22 281.448C441.83 282.606 440.998 283.562 439.904 284.107C438.81 284.652 437.545 284.741 436.386 284.354L436.384 284.355ZM222.352 139.773C221.657 139.541 220.897 139.594 220.241 139.921C219.585 140.248 219.085 140.822 218.852 141.517L199.242 200.055C199.01 200.75 199.063 201.509 199.39 202.166C199.717 202.822 200.291 203.321 200.986 203.555L436.971 282.608C437.666 282.84 438.425 282.787 439.082 282.46C439.738 282.133 440.237 281.559 440.471 280.864L460.084 222.329C460.316 221.634 460.263 220.874 459.936 220.218C459.609 219.562 459.035 219.062 458.34 218.829L222.352 139.773Z" fill="#3F3D56"/>
<path d="M358.797 515.97L122.812 436.918C121.654 436.529 120.697 435.696 120.153 434.602C119.608 433.508 119.519 432.243 119.906 431.084L156.204 322.729C156.593 321.571 157.426 320.614 158.52 320.07C159.614 319.525 160.879 319.436 162.038 319.823L398.024 398.873C399.182 399.262 400.138 400.095 400.683 401.189C401.228 402.283 401.317 403.548 400.93 404.707L364.63 513.064C364.24 514.222 363.408 515.178 362.314 515.723C361.221 516.268 359.956 516.357 358.797 515.97ZM161.452 321.57C160.756 321.338 159.997 321.391 159.341 321.718C158.685 322.045 158.185 322.619 157.952 323.314L121.654 431.669C121.422 432.364 121.475 433.123 121.802 433.78C122.129 434.436 122.703 434.935 123.398 435.169L359.384 514.222C360.079 514.454 360.838 514.401 361.495 514.074C362.151 513.747 362.65 513.173 362.884 512.478L399.184 404.121C399.416 403.426 399.363 402.667 399.036 402.01C398.709 401.354 398.135 400.855 397.44 400.621L161.452 321.57Z" fill="#3F3D56"/>
<path d="M404.184 374.668L299.305 339.529C298.147 339.139 297.19 338.307 296.646 337.213C296.101 336.119 296.012 334.854 296.399 333.695L316.009 275.157C316.398 273.999 317.231 273.042 318.325 272.498C319.419 271.953 320.684 271.864 321.843 272.251L426.725 307.389C427.883 307.778 428.839 308.611 429.384 309.705C429.929 310.799 430.018 312.064 429.631 313.223L410.022 371.761C409.633 372.92 408.799 373.878 407.705 374.423C406.61 374.968 405.344 375.056 404.184 374.668ZM321.257 274.003C320.561 273.771 319.802 273.824 319.146 274.151C318.49 274.478 317.99 275.052 317.757 275.747L298.148 334.285C297.916 334.98 297.969 335.739 298.296 336.396C298.623 337.052 299.197 337.551 299.892 337.785L404.774 372.919C405.469 373.151 406.228 373.098 406.885 372.771C407.541 372.444 408.04 371.87 408.274 371.175L427.884 312.637C428.116 311.942 428.063 311.182 427.736 310.526C427.409 309.87 426.835 309.37 426.14 309.137L321.257 274.003Z" fill="#E6E6E6"/>
<path d="M180.263 613.643L75.3839 578.509C74.2258 578.119 73.2694 577.287 72.7246 576.193C72.1798 575.099 72.0911 573.834 72.4779 572.675L109.069 463.444C109.458 462.286 110.291 461.329 111.385 460.785C112.479 460.24 113.744 460.151 114.903 460.538L219.784 495.672C220.942 496.061 221.898 496.894 222.443 497.988C222.988 499.082 223.077 500.347 222.69 501.506L186.097 610.737C185.707 611.895 184.874 612.851 183.781 613.396C182.687 613.941 181.422 614.03 180.263 613.643ZM114.314 462.285C113.618 462.053 112.859 462.106 112.203 462.433C111.547 462.76 111.047 463.334 110.814 464.029L74.2219 573.26C73.9898 573.955 74.0432 574.714 74.3701 575.371C74.6971 576.027 75.271 576.526 75.9659 576.76L180.849 611.895C181.544 612.127 182.303 612.074 182.96 611.747C183.616 611.42 184.115 610.846 184.349 610.151L220.94 500.92C221.172 500.225 221.119 499.465 220.792 498.809C220.465 498.153 219.891 497.653 219.196 497.42L114.314 462.285Z" fill="#E6E6E6"/>
<path d="M309.618 656.976L204.735 621.841C203.577 621.452 202.62 620.619 202.076 619.525C201.531 618.431 201.442 617.166 201.829 616.007L238.42 506.776C238.809 505.618 239.642 504.661 240.736 504.117C241.83 503.572 243.095 503.483 244.254 503.87L349.137 539.005C350.295 539.394 351.251 540.227 351.796 541.321C352.341 542.415 352.43 543.68 352.043 544.839L315.452 654.069C315.063 655.227 314.23 656.184 313.136 656.729C312.042 657.274 310.777 657.363 309.618 656.976ZM243.669 505.618C242.973 505.386 242.214 505.439 241.558 505.766C240.902 506.093 240.402 506.667 240.169 507.362L203.577 616.593C203.345 617.288 203.398 618.048 203.725 618.704C204.052 619.36 204.626 619.86 205.321 620.093L310.204 655.229C310.899 655.461 311.658 655.408 312.314 655.081C312.971 654.754 313.47 654.18 313.704 653.485L350.295 544.254C350.527 543.559 350.474 542.8 350.147 542.143C349.82 541.487 349.246 540.988 348.551 540.754L243.669 505.618Z" fill="#E6E6E6"/>
<path d="M184.099 388.677C194.468 388.677 202.873 380.271 202.873 369.903C202.873 359.534 194.468 351.129 184.099 351.129C173.73 351.129 165.325 359.534 165.325 369.903C165.325 380.271 173.73 388.677 184.099 388.677Z" fill="#E15262"/>
<path d="M229.184 371.808C228.397 371.544 227.538 371.604 226.795 371.974C226.052 372.344 225.487 372.994 225.223 373.781C224.959 374.568 225.019 375.427 225.389 376.17C225.759 376.913 226.409 377.478 227.196 377.742L367.065 424.596C367.454 424.726 367.866 424.779 368.276 424.75C368.686 424.722 369.086 424.613 369.454 424.43C369.822 424.247 370.15 423.993 370.42 423.683C370.689 423.373 370.895 423.013 371.026 422.623C371.156 422.233 371.209 421.822 371.18 421.412C371.152 421.002 371.043 420.602 370.86 420.234C370.677 419.866 370.423 419.538 370.113 419.268C369.803 418.998 369.443 418.792 369.053 418.662L229.184 371.808Z" fill="#E6E6E6"/>
<path d="M223.224 389.609C222.834 389.478 222.423 389.426 222.013 389.454C221.603 389.483 221.203 389.592 220.835 389.775C220.467 389.958 220.139 390.212 219.869 390.522C219.599 390.832 219.393 391.192 219.263 391.582C219.132 391.972 219.08 392.383 219.108 392.793C219.137 393.203 219.246 393.603 219.429 393.971C219.612 394.339 219.866 394.667 220.176 394.937C220.486 395.206 220.846 395.412 221.236 395.543L281.422 415.705C281.812 415.836 282.223 415.888 282.633 415.86C283.043 415.831 283.443 415.722 283.811 415.539C284.179 415.356 284.507 415.102 284.777 414.792C285.046 414.482 285.252 414.122 285.383 413.732C285.513 413.342 285.566 412.931 285.537 412.521C285.509 412.111 285.4 411.711 285.217 411.343C285.034 410.975 284.78 410.647 284.47 410.377C284.16 410.108 283.8 409.902 283.41 409.771L223.224 389.609Z" fill="#E6E6E6"/>
<path d="M158.923 399.722C156.666 398.966 154.384 399.682 153.836 401.322C153.288 402.962 154.679 404.904 156.936 405.66L349.912 470.305C352.169 471.061 354.451 470.345 354.999 468.705C355.547 467.065 354.156 465.123 351.899 464.367L158.923 399.722Z" fill="#E6E6E6"/>
<path d="M152.96 417.524C150.703 416.768 148.421 417.484 147.873 419.124C147.325 420.764 148.716 422.706 150.973 423.462L343.949 488.107C346.206 488.863 348.488 488.147 349.036 486.507C349.584 484.867 348.193 482.925 345.936 482.169L152.96 417.524Z" fill="#E6E6E6"/>
<path d="M249.09 200.475C259.458 200.475 267.864 192.069 267.864 181.701C267.864 171.332 259.458 162.927 249.09 162.927C238.721 162.927 230.316 171.332 230.316 181.701C230.316 192.069 238.721 200.475 249.09 200.475Z" fill="#E15262"/>
<path d="M294.177 183.605C293.787 183.474 293.376 183.422 292.966 183.45C292.556 183.479 292.156 183.588 291.788 183.771C291.42 183.954 291.092 184.208 290.822 184.518C290.552 184.828 290.346 185.188 290.216 185.578C290.085 185.968 290.033 186.379 290.061 186.789C290.09 187.199 290.199 187.599 290.382 187.967C290.565 188.335 290.819 188.663 291.129 188.933C291.439 189.202 291.799 189.408 292.189 189.539L432.058 236.393C432.447 236.523 432.859 236.576 433.269 236.547C433.679 236.519 434.079 236.41 434.447 236.227C434.815 236.044 435.143 235.79 435.413 235.48C435.682 235.17 435.888 234.81 436.019 234.42C436.149 234.03 436.202 233.619 436.173 233.209C436.145 232.799 436.036 232.399 435.853 232.031C435.669 231.663 435.416 231.335 435.106 231.065C434.796 230.795 434.435 230.589 434.046 230.459L294.177 183.605Z" fill="#E6E6E6"/>
<path d="M288.214 201.407C287.824 201.276 287.413 201.224 287.003 201.252C286.593 201.281 286.193 201.39 285.825 201.573C285.457 201.756 285.129 202.01 284.859 202.32C284.589 202.63 284.383 202.99 284.253 203.38C284.122 203.77 284.07 204.181 284.098 204.591C284.127 205.001 284.236 205.401 284.419 205.769C284.602 206.137 284.856 206.465 285.166 206.735C285.476 207.004 285.836 207.21 286.226 207.341L346.412 227.503C346.802 227.633 347.213 227.686 347.623 227.657C348.033 227.629 348.433 227.52 348.801 227.337C349.169 227.154 349.497 226.9 349.767 226.59C350.036 226.28 350.242 225.92 350.373 225.53C350.503 225.14 350.556 224.729 350.527 224.319C350.499 223.909 350.39 223.509 350.207 223.141C350.024 222.773 349.77 222.445 349.46 222.175C349.15 221.905 348.79 221.699 348.4 221.569L288.214 201.407Z" fill="#E6E6E6"/>
<path d="M274.737 331.315L176.348 298.356L212.937 266.007C213.593 265.427 214.389 265.03 215.247 264.855C216.105 264.681 216.994 264.735 217.824 265.014C218.654 265.292 219.396 265.783 219.976 266.439C220.556 267.095 220.953 267.892 221.127 268.75L225.279 289.196L251.856 265.696C252.677 264.97 253.675 264.473 254.748 264.255C255.822 264.037 256.935 264.106 257.974 264.454C259.013 264.802 259.942 265.417 260.668 266.238C261.394 267.059 261.891 268.057 262.109 269.131L274.737 331.315ZM179.961 297.622L272.295 328.553L260.302 269.502C260.148 268.745 259.798 268.043 259.286 267.464C258.775 266.886 258.12 266.452 257.388 266.207C256.656 265.962 255.872 265.914 255.115 266.067C254.358 266.221 253.656 266.571 253.077 267.082L224.108 292.693L219.32 269.118C219.21 268.577 218.96 268.075 218.595 267.662C218.23 267.248 217.762 266.938 217.239 266.763C216.716 266.588 216.156 266.553 215.615 266.663C215.074 266.773 214.572 267.023 214.159 267.389L179.961 297.622Z" fill="#E6E6E6"/>
<path d="M274.833 331.335L169.951 296.201C168.793 295.812 167.836 294.979 167.292 293.885C166.747 292.791 166.658 291.526 167.045 290.367L186.654 231.829C187.043 230.671 187.876 229.714 188.97 229.17C190.064 228.625 191.329 228.536 192.488 228.923L297.371 264.058C298.529 264.447 299.485 265.28 300.03 266.374C300.575 267.468 300.664 268.733 300.277 269.892L280.667 328.429C280.277 329.587 279.444 330.543 278.351 331.088C277.257 331.633 275.992 331.722 274.833 331.335ZM191.903 230.67C191.207 230.438 190.448 230.491 189.792 230.818C189.136 231.145 188.636 231.719 188.403 232.414L168.794 290.952C168.562 291.647 168.615 292.406 168.942 293.063C169.269 293.719 169.843 294.218 170.538 294.452L275.421 329.587C276.116 329.819 276.875 329.766 277.532 329.439C278.188 329.112 278.687 328.538 278.921 327.843L298.531 269.305C298.763 268.61 298.71 267.85 298.383 267.194C298.056 266.538 297.482 266.038 296.787 265.805L191.903 230.67Z" fill="#E6E6E6"/>
<path d="M129.702 490.549C129.312 490.418 128.9 490.365 128.49 490.393C128.08 490.421 127.679 490.53 127.311 490.713C126.942 490.896 126.614 491.15 126.344 491.46C126.074 491.77 125.868 492.131 125.737 492.521C125.606 492.911 125.554 493.323 125.583 493.733C125.611 494.143 125.72 494.544 125.904 494.912C126.088 495.28 126.342 495.608 126.653 495.878C126.963 496.147 127.324 496.353 127.714 496.483L187.9 516.645C188.686 516.907 189.545 516.847 190.287 516.477C191.029 516.107 191.594 515.457 191.857 514.671C192.12 513.884 192.061 513.026 191.692 512.283C191.323 511.541 190.674 510.975 189.888 510.711L129.702 490.549Z" fill="#E6E6E6"/>
<path d="M123.846 508.029C123.456 507.898 123.044 507.845 122.634 507.873C122.224 507.901 121.823 508.01 121.455 508.193C121.087 508.376 120.758 508.63 120.488 508.94C120.218 509.25 120.012 509.611 119.881 510.001C119.75 510.391 119.698 510.803 119.727 511.213C119.755 511.623 119.865 512.024 120.048 512.392C120.232 512.76 120.486 513.088 120.797 513.357C121.107 513.627 121.468 513.833 121.858 513.963L182.045 534.129C182.831 534.39 183.689 534.328 184.43 533.958C185.171 533.588 185.734 532.939 185.998 532.153C186.261 531.368 186.202 530.51 185.833 529.768C185.465 529.026 184.818 528.46 184.033 528.195L123.846 508.029Z" fill="#E6E6E6"/>
<path d="M294.815 626.964C295.601 627.226 296.46 627.166 297.202 626.795C297.944 626.425 298.509 625.776 298.772 624.99C299.035 624.203 298.976 623.345 298.607 622.602C298.237 621.86 297.589 621.294 296.803 621.03L236.617 600.868C235.83 600.605 234.972 600.666 234.23 601.036C233.488 601.406 232.923 602.056 232.66 602.842C232.396 603.628 232.456 604.487 232.825 605.229C233.194 605.972 233.843 606.537 234.629 606.802L294.815 626.964Z" fill="#E6E6E6"/>
<path d="M300.671 609.483C301.061 609.614 301.472 609.667 301.883 609.639C302.293 609.611 302.694 609.502 303.062 609.319C303.43 609.136 303.759 608.882 304.029 608.572C304.299 608.262 304.505 607.901 304.636 607.511C304.766 607.121 304.819 606.709 304.79 606.299C304.762 605.889 304.652 605.488 304.469 605.12C304.285 604.752 304.031 604.424 303.72 604.155C303.41 603.885 303.049 603.679 302.659 603.549L242.473 583.387C242.083 583.256 241.671 583.203 241.261 583.231C240.851 583.259 240.45 583.368 240.082 583.551C239.713 583.734 239.385 583.988 239.115 584.298C238.845 584.608 238.639 584.969 238.508 585.359C238.377 585.749 238.325 586.161 238.354 586.571C238.382 586.981 238.491 587.382 238.675 587.75C238.859 588.118 239.113 588.446 239.424 588.716C239.734 588.985 240.095 589.191 240.485 589.321L300.671 609.483Z" fill="#E6E6E6"/>
<path d="M394.671 329.483C395.061 329.614 395.472 329.667 395.883 329.639C396.293 329.611 396.694 329.502 397.062 329.319C397.43 329.136 397.759 328.882 398.029 328.572C398.299 328.262 398.505 327.901 398.636 327.511C398.766 327.121 398.819 326.709 398.79 326.299C398.762 325.889 398.652 325.488 398.469 325.12C398.285 324.752 398.031 324.424 397.72 324.155C397.41 323.885 397.049 323.679 396.659 323.549L336.473 303.387C336.083 303.256 335.671 303.203 335.261 303.231C334.851 303.259 334.45 303.368 334.082 303.551C333.713 303.734 333.385 303.988 333.115 304.298C332.845 304.608 332.639 304.969 332.508 305.359C332.377 305.749 332.325 306.161 332.354 306.571C332.382 306.981 332.491 307.382 332.675 307.75C332.859 308.118 333.113 308.446 333.424 308.715C333.734 308.985 334.095 309.191 334.485 309.321L394.671 329.483Z" fill="#E6E6E6"/>
<path d="M389.671 343.483C390.061 343.614 390.472 343.667 390.883 343.639C391.293 343.611 391.694 343.502 392.062 343.319C392.43 343.136 392.759 342.882 393.029 342.572C393.299 342.262 393.505 341.901 393.636 341.511C393.766 341.121 393.819 340.709 393.79 340.299C393.762 339.889 393.652 339.488 393.469 339.12C393.285 338.752 393.031 338.424 392.72 338.155C392.41 337.885 392.049 337.679 391.659 337.549L331.473 317.387C331.083 317.256 330.671 317.203 330.261 317.231C329.851 317.259 329.45 317.368 329.082 317.551C328.713 317.734 328.385 317.988 328.115 318.298C327.845 318.608 327.639 318.969 327.508 319.359C327.377 319.749 327.325 320.161 327.354 320.571C327.382 320.981 327.491 321.382 327.675 321.75C327.859 322.118 328.113 322.446 328.424 322.715C328.734 322.985 329.095 323.191 329.485 323.321L389.671 343.483Z" fill="#E6E6E6"/>
</svg>
