<svg width="399" height="768" viewBox="0 0 399 768" fill="none" xmlns="http://www.w3.org/2000/svg">
<path d="M362.889 172.947H358.891V63.4019C358.891 55.0758 357.251 46.8313 354.064 39.139C350.878 31.4467 346.208 24.4573 340.32 18.5699C334.433 12.6825 327.444 8.01236 319.751 4.82613C312.059 1.63989 303.815 -2.49509e-05 295.488 2.84729e-10H63.402C55.0759 -1.83848e-05 46.8314 1.63991 39.1391 4.82615C31.4468 8.01239 24.4574 12.6825 18.57 18.5699C12.6826 24.4574 8.01242 31.4468 4.82617 39.139C1.63993 46.8313 -9.19253e-06 55.0759 0 63.4019V664.376C-6.56609e-06 672.702 1.63992 680.947 4.82617 688.639C8.01242 696.331 12.6826 703.321 18.57 709.208C24.4574 715.095 31.4468 719.766 39.1391 722.952C46.8314 726.138 55.0759 727.778 63.402 727.778H295.488C303.815 727.778 312.059 726.138 319.751 722.952C327.444 719.766 334.433 715.095 340.32 709.208C346.208 703.321 350.878 696.331 354.064 688.639C357.251 680.947 358.891 672.702 358.891 664.376V250.923H362.889V172.947Z" fill="#3F3D56"/>
<path d="M298.047 16.4951H267.752C269.145 19.9108 269.677 23.6166 269.3 27.2862C268.924 30.9558 267.651 34.4765 265.593 37.5382C263.536 40.5999 260.757 43.1086 257.501 44.8432C254.246 46.5779 250.613 47.4854 246.925 47.4857H113.965C110.276 47.4854 106.644 46.5779 103.389 44.8432C100.133 43.1086 97.3542 40.5999 95.2966 37.5382C93.239 34.4765 91.9659 30.9558 91.5895 27.2862C91.2131 23.6166 91.7449 19.9108 93.1381 16.4951H64.8425C58.6247 16.4951 52.4678 17.7198 46.7233 20.0992C40.9788 22.4787 35.7592 25.9663 31.3625 30.3629C26.9659 34.7596 23.4782 39.9791 21.0988 45.7236C18.7193 51.4681 17.4946 57.625 17.4946 63.8428V663.935C17.4946 670.153 18.7193 676.31 21.0988 682.055C23.4782 687.799 26.9658 693.019 31.3625 697.415C35.7592 701.812 40.9788 705.3 46.7233 707.679C52.4678 710.058 58.6247 711.283 64.8425 711.283H298.047C304.265 711.283 310.421 710.058 316.166 707.679C321.91 705.3 327.13 701.812 331.527 697.415C335.923 693.019 339.411 687.799 341.79 682.055C344.17 676.31 345.395 670.153 345.395 663.935V63.8428C345.395 51.2854 340.406 39.2423 331.527 30.3629C322.647 21.4835 310.604 16.4951 298.047 16.4951Z" fill="white"/>
<path d="M304.445 110.234H58.4446V321.234H304.445V110.234Z" fill="#E6E6E6"/>
<path d="M131.445 365.234C141.386 365.234 149.445 357.175 149.445 347.234C149.445 337.293 141.386 329.234 131.445 329.234C121.503 329.234 113.445 337.293 113.445 347.234C113.445 357.175 121.503 365.234 131.445 365.234Z" fill="#E15262"/>
<path d="M140.445 345.734H132.945V338.234H129.945V345.734H122.445V348.734H129.945V356.234H132.945V348.734H140.445V345.734Z" fill="white"/>
<path d="M226.445 365.234C236.386 365.234 244.445 357.175 244.445 347.234C244.445 337.293 236.386 329.234 226.445 329.234C216.503 329.234 208.445 337.293 208.445 347.234C208.445 357.175 216.503 365.234 226.445 365.234Z" fill="#E15262"/>
<path d="M235.445 348.734V345.734H217.445V348.734H235.445Z" fill="white"/>
<path d="M190.619 136.549H171.179C170.496 136.549 169.84 136.82 169.357 137.303C168.873 137.787 168.602 138.442 168.602 139.126V147.659C168.602 148.342 168.873 148.998 169.357 149.481C169.84 149.965 170.496 150.236 171.179 150.236H174.401V163.021H187.398V150.236H190.619C191.303 150.236 191.959 149.965 192.442 149.481C192.925 148.998 193.197 148.342 193.197 147.659V139.126C193.197 138.442 192.925 137.787 192.442 137.303C191.959 136.82 191.303 136.549 190.619 136.549Z" fill="#E15262"/>
<path d="M210.091 214.642C198.185 197.22 192.099 176.478 192.703 155.385C192.714 154.899 192.556 154.423 192.256 154.04C191.956 153.656 191.533 153.388 191.058 153.282V149.595H170.527V153.231H170.244C169.967 153.231 169.693 153.286 169.438 153.392C169.182 153.498 168.95 153.654 168.755 153.849C168.559 154.045 168.405 154.278 168.299 154.534C168.194 154.789 168.139 155.063 168.14 155.34C168.14 155.391 168.142 155.442 168.146 155.493C169.763 178.041 164.301 198.261 151.76 216.154C151.038 217.182 150.669 218.417 150.709 219.672L152.954 289.117C153.008 290.666 153.658 292.134 154.769 293.215C155.879 294.296 157.364 294.907 158.914 294.919H205.353C206.921 294.906 208.421 294.282 209.535 293.179C210.649 292.076 211.289 290.582 211.317 289.014L212.182 221.589C212.208 219.115 211.478 216.691 210.091 214.642Z" fill="#3F3D56"/>
<path opacity="0.2" d="M186.567 139.329C186.567 140.804 185.981 142.218 184.938 143.261C183.895 144.304 182.481 144.889 181.006 144.889C179.531 144.889 178.117 144.304 177.074 143.261C176.031 142.218 175.446 140.804 175.446 139.329" fill="black"/>
<path d="M202.74 237.709H197.116C196.579 234.225 194.813 231.048 192.138 228.754C189.462 226.459 186.054 225.197 182.529 225.197C179.004 225.197 175.596 226.459 172.92 228.754C170.245 231.048 168.479 234.225 167.942 237.709H162.318C161.72 237.709 161.128 237.838 160.585 238.088C160.041 238.338 159.558 238.702 159.168 239.156C158.779 239.611 158.492 240.144 158.328 240.719C158.163 241.294 158.125 241.898 158.216 242.49L164.324 282.193H199.399L206.818 242.623C206.931 242.024 206.91 241.407 206.757 240.817C206.604 240.227 206.322 239.678 205.933 239.208C205.544 238.739 205.055 238.361 204.504 238.102C203.952 237.843 203.349 237.709 202.74 237.709Z" fill="#E15262"/>
<path d="M304.445 407.234H58.4446V618.234H304.445V407.234Z" fill="#E6E6E6"/>
<path d="M131.445 662.234C141.386 662.234 149.445 654.175 149.445 644.234C149.445 634.293 141.386 626.234 131.445 626.234C121.503 626.234 113.445 634.293 113.445 644.234C113.445 654.175 121.503 662.234 131.445 662.234Z" fill="#E15262"/>
<path d="M140.445 642.734H132.945V635.234H129.945V642.734H122.445V645.734H129.945V653.234H132.945V645.734H140.445V642.734Z" fill="white"/>
<path d="M226.445 662.234C236.386 662.234 244.445 654.175 244.445 644.234C244.445 634.293 236.386 626.234 226.445 626.234C216.503 626.234 208.445 634.293 208.445 644.234C208.445 654.175 216.503 662.234 226.445 662.234Z" fill="#E15262"/>
<path d="M235.445 645.734V642.734H217.445V645.734H235.445Z" fill="white"/>
<path d="M229.873 557.131L230.008 557.131C234.64 557.17 239.176 555.812 243.024 553.235C246.872 550.657 249.854 546.979 251.581 542.681C257.023 528.922 258.297 513.866 255.245 499.389C252.193 484.911 244.949 471.651 234.417 461.259C223.884 450.868 210.527 443.804 196.01 440.947C181.492 438.091 166.455 439.568 152.77 445.195C139.086 450.822 127.359 460.35 119.05 472.592C110.741 484.835 106.216 499.251 106.04 514.046C105.863 528.841 110.043 543.361 118.058 555.798C126.073 568.235 137.569 578.04 151.116 583.991C155.326 585.855 160.001 586.404 164.528 585.564C169.056 584.725 173.224 582.537 176.486 579.287C183.482 572.254 191.802 566.675 200.964 562.872C210.127 559.07 219.952 557.119 229.873 557.131Z" fill="white"/>
<path d="M191.13 534.301C204.885 534.301 216.036 523.15 216.036 509.395C216.036 495.64 204.885 484.489 191.13 484.489C177.375 484.489 166.224 495.64 166.224 509.395C166.224 523.15 177.375 534.301 191.13 534.301Z" fill="#F9A825"/>
<path d="M359.293 220.393C359.278 220.444 359.263 220.49 359.247 220.541C359.213 220.64 359.185 220.741 359.163 220.844C358.978 221.503 358.878 222.182 358.863 222.866C358.854 223.158 358.862 223.45 358.885 223.741C358.913 224.114 358.967 224.485 359.045 224.852C359.128 225.259 359.243 225.659 359.388 226.049C359.454 226.234 359.529 226.416 359.613 226.593C360.153 227.805 360.967 228.874 361.991 229.718C363.015 230.562 364.22 231.156 365.513 231.455L365.519 231.455C365.646 231.488 365.774 231.514 365.903 231.533C366.624 231.664 367.358 231.701 368.088 231.644L368.1 231.643C369.88 231.509 371.573 230.817 372.939 229.668C373.775 228.974 373.867 228.24 374.911 228.566C378.243 229.603 380.468 224.113 378.803 221.106C378.805 220.992 378.801 220.879 378.79 220.766C378.63 218.665 375.468 218.13 373.624 217.015L373.615 217.052C373.529 217.378 373.343 217.669 373.083 217.884C372.824 218.099 372.504 218.227 372.168 218.251C371.832 218.275 371.496 218.194 371.209 218.018C370.921 217.842 370.696 217.581 370.564 217.271C370.227 216.459 369.921 215.635 369.646 214.801C366.112 212.255 356.668 216.233 359.293 220.393Z" fill="#2F2E41"/>
<path d="M337.129 239.455C336.647 240.577 321.808 240.457 321.129 241.455C315.889 249.165 334.778 281.97 329.538 289.69L328.808 290.56C330.517 289.772 332.16 288.845 333.718 287.79C333.858 284.63 333.998 281.46 334.148 278.3C335.717 280.307 336.984 282.534 337.908 284.91C339.128 284.05 340.129 282.455 345.358 279.32C347.475 276.994 349.915 274.985 352.604 273.354L337.129 239.455Z" fill="#2F2E41"/>
<path d="M347.904 302.643C346.267 301.576 344.398 300.916 342.454 300.715C340.51 300.515 338.546 300.782 336.726 301.493C334.906 302.203 333.281 303.338 331.987 304.802C330.692 306.267 329.766 308.019 329.285 309.913L306.735 368.669L267.973 346.664C267.803 344.134 266.836 341.724 265.211 339.778C263.587 337.832 261.387 336.451 258.929 335.832C256.47 335.213 253.879 335.389 251.527 336.334C249.174 337.279 247.182 338.945 245.834 341.093C244.487 343.24 243.855 345.759 244.028 348.289C244.201 350.818 245.171 353.227 246.798 355.171C248.425 357.115 250.626 358.494 253.085 359.11C255.544 359.726 258.135 359.547 260.486 358.599C268.649 367.311 304.038 403.031 318.688 389.074C331.003 377.343 348.774 331.878 353.052 316.178C353.737 313.668 353.608 311.004 352.683 308.572C351.758 306.14 350.085 304.064 347.904 302.643Z" fill="#A0616A"/>
<path d="M359.303 745.961L347.826 745.96L342.365 701.69H359.305L359.303 745.961Z" fill="#A0616A"/>
<path d="M324.66 762.895C324.666 764.181 325.179 765.413 326.087 766.323C326.995 767.233 328.226 767.748 329.512 767.756H351.118L351.787 766.369L354.843 760.062L356.027 766.369L356.289 767.756H364.438L364.322 766.359L362.149 740.299L359.306 740.125L347.024 739.397L344.006 739.213V746.994C341.716 749.429 323.749 758.636 324.66 762.895Z" fill="#2F2E41"/>
<path d="M314.484 737.056L303.653 740.854L283.85 700.885L299.836 695.28L314.484 737.056Z" fill="#A0616A"/>
<path d="M287.398 764.501C287.829 765.713 288.72 766.705 289.878 767.263C291.036 767.822 292.368 767.9 293.584 767.483L313.973 760.332L314.145 758.802L314.942 751.839L318.146 757.399L318.853 758.621L326.543 755.924L325.971 754.644L315.296 730.772L312.556 731.548L300.725 734.926L297.816 735.751L300.391 743.094C299.036 746.149 285.128 760.784 287.398 764.501Z" fill="#2F2E41"/>
<path d="M305.561 391.536L312.677 423.7L364.713 428.407L369.495 400.401L305.561 391.536Z" fill="#A0616A"/>
<path d="M368.187 414.135L309.631 413.157L308.372 430.251L263.154 566.176L255.119 599.595L278.149 723.68L317.149 723.655C317.149 723.655 316.34 691.055 314.783 689.704C313.227 688.353 309.978 689.725 312.387 682.763C314.796 675.802 316.574 673.553 313.723 670.755C310.873 667.957 307.427 670.304 309.542 663.639C311.658 656.974 328.917 565.973 328.917 565.973V729.124H369.043C369.043 729.124 377.444 721.45 373.577 717.454C369.71 713.457 366.572 712.673 369.71 707.181C372.848 701.69 379.657 703.073 373.899 696.106C369.324 690.57 380.268 537.914 384.96 475.398C386.227 458.502 380.834 441.782 369.932 428.812L368.187 414.135Z" fill="#2F2E41"/>
<path d="M338.038 287.056L363.939 285.721L375.969 304.73C375.969 304.73 398.604 308.515 397.035 335.187C395.466 361.86 369.495 385.265 369.495 385.265L370.605 381.459L368.677 386.968L368.924 390.062L371.555 393.338L371.825 396.726L369.495 402.086L372.664 407.219L306.034 400.764L303.598 391.888L307.152 387.122L305.167 380.905L308.152 374.926L309.708 373.629C309.708 373.629 292.681 348.049 312.227 328.782L320.072 315.446L328.85 304.736L338.038 287.056Z" fill="#E15262"/>
<path d="M344.484 275.835C358.049 275.835 369.045 264.838 369.045 251.274C369.045 237.709 358.049 226.713 344.484 226.713C330.92 226.713 319.924 237.709 319.924 251.274C319.924 264.838 330.92 275.835 344.484 275.835Z" fill="#A0616A"/>
<path d="M363.139 286.655C361.139 284.984 359.747 282.699 359.179 280.155C358.725 283.244 358.843 286.39 359.529 289.435C358.199 290.435 356.909 291.385 355.689 292.245C354.765 289.87 353.498 287.643 351.929 285.635C351.779 288.795 351.639 291.965 351.499 295.125C349.94 296.181 348.298 297.108 346.589 297.895L347.319 297.025C352.559 289.305 338.999 275.095 344.239 267.385C345.709 265.225 339.069 248.155 334.009 247.385C329.509 246.705 329.699 248.005 325.339 248.955C324.886 247.067 324.183 245.248 323.249 243.545C323.498 245.442 323.44 247.367 323.079 249.245C321.529 249.305 320.309 248.318 318.659 248.065C308.129 246.455 309.199 235.065 312.129 231.455C315.069 227.855 324.829 226.775 329.329 225.605C329.739 225.205 330.669 225.455 331.079 225.075C339.703 217.183 351.237 215.876 361.616 219.374C362.549 219.696 363.455 220.09 364.326 220.553C373.136 225.17 380.676 231.524 380.129 241.455C379.872 246.107 378.817 246.831 380.129 249.455C380.451 250.099 377.63 256.163 382.379 256.809C387.129 257.455 384.987 261.122 386.129 262.455C390.552 267.62 374.7 282.683 363.139 286.655Z" fill="#2F2E41"/>
<path d="M398.951 403.019L397.984 327.712C397.933 324.521 396.631 321.478 394.357 319.24C392.083 317.002 389.02 315.747 385.829 315.747C384.178 315.747 382.545 316.083 381.028 316.735C379.512 317.387 378.144 318.341 377.008 319.539C375.872 320.737 374.992 322.153 374.422 323.702C373.851 325.251 373.602 326.9 373.69 328.548L377.092 406.743L377.157 454.344C375.152 455.195 373.457 456.642 372.302 458.489C371.148 460.336 370.59 462.494 370.705 464.67C370.82 466.845 371.602 468.932 372.944 470.648C374.286 472.363 376.124 473.624 378.208 474.258C380.292 474.893 382.52 474.871 384.591 474.195C386.662 473.519 388.474 472.221 389.782 470.479C391.09 468.738 391.83 466.635 391.901 464.458C391.972 462.281 391.372 460.135 390.181 458.311L398.951 403.019Z" fill="#A0616A"/>
</svg>
